<?xml version="1.0" encoding="UTF-8"?>
<svg version="1.1" xmlns="http://www.w3.org/2000/svg" width="573" height="276">
<path d="M0 0 C0.99168182 -0.00099701 1.98336365 -0.00199402 3.00509644 -0.00302124 C5.08762691 0.00163198 7.17017163 0.02092167 9.25244141 0.05419922 C12.42843663 0.10154385 15.60108312 0.09528408 18.77734375 0.08203125 C20.80991571 0.0931824 22.84247365 0.10740067 24.875 0.125 C25.81683136 0.12317719 26.75866272 0.12135437 27.72903442 0.11947632 C34.6501401 0.2674992 39.17946457 1.53136273 44.16918945 6.6328125 C45.54913415 9.17729879 46.0199938 11.36794508 46.47265625 14.2265625 C46.64345703 15.2784375 46.81425781 16.3303125 46.99023438 17.4140625 C47.15587891 18.5071875 47.32152344 19.6003125 47.4921875 20.7265625 C47.66943359 21.8196875 47.84667969 22.9128125 48.02929688 24.0390625 C48.71156314 28.33813021 49.3046875 32.36459033 49.3046875 36.7265625 C49.9646875 36.7678125 50.6246875 36.8090625 51.3046875 36.8515625 C57.0547526 38.52866482 61.09168387 41.98218924 64.48046875 46.85546875 C66.78217999 51.10288125 67.1118683 55.28340203 67.4296875 60.0390625 C67.51432283 65.90830375 67.51432283 65.90830375 70.3046875 70.7265625 C70.56347656 72.66601562 70.56347656 72.66601562 70.5703125 75.0078125 C70.57417969 76.27044922 70.57417969 76.27044922 70.578125 77.55859375 C70.57039063 78.43902344 70.56265625 79.31945312 70.5546875 80.2265625 C70.56628906 81.54720703 70.56628906 81.54720703 70.578125 82.89453125 C70.57554687 83.73628906 70.57296875 84.57804687 70.5703125 85.4453125 C70.56805664 86.21810547 70.56580078 86.99089844 70.56347656 87.78710938 C70.3046875 89.7265625 70.3046875 89.7265625 68.3046875 91.7265625 C68.00100917 94.08167152 68.00100917 94.08167152 68.04931641 96.84375 C68.04235748 97.91246338 68.03539856 98.98117676 68.02822876 100.08227539 C68.02972427 101.82432251 68.02972427 101.82432251 68.03125 103.6015625 C68.01094543 106.05599401 67.99009437 108.51042106 67.96875 110.96484375 C67.94622447 114.83776605 67.92971188 118.71051149 67.92382812 122.58349609 C67.91425602 126.31901181 67.880401 130.05372756 67.84375 133.7890625 C67.84879547 134.9342334 67.85384094 136.0794043 67.85903931 137.25927734 C67.76540616 144.98198554 66.95841146 152.65311835 61.59463501 158.63305664 C58.87520844 161.13371085 56.37261599 162.69580243 52.9921875 164.2265625 C50.10798145 165.48179757 50.10798145 165.48179757 49.19140625 168.26171875 C47.94381857 173.13665385 47.61215456 177.99603804 47.26953125 183.00585938 C46.66936171 189.7039779 45.0619768 194.30334936 39.84033203 198.89233398 C34.9643183 201.42192183 30.8462078 201.30166301 25.4296875 201.2578125 C24.38699707 201.2616394 23.34430664 201.26546631 22.27001953 201.26940918 C20.07127921 201.27212428 17.87250636 201.26479135 15.67382812 201.24804688 C12.31567103 201.22663254 8.95965335 201.24786329 5.6015625 201.2734375 C3.4609328 201.27079415 1.32030442 201.26566904 -0.8203125 201.2578125 C-1.82046387 201.26590942 -2.82061523 201.27400635 -3.85107422 201.28234863 C-9.63258022 201.20489565 -13.16424048 200.68676253 -17.6953125 196.7265625 C-23.03223906 189.80298209 -22.91401421 183.99753465 -23.31640625 175.453125 C-23.6840455 171.83737405 -24.17792864 169.02627026 -25.6953125 165.7265625 C-27.61523093 164.20748011 -27.61523093 164.20748011 -29.9453125 163.2890625 C-35.52796703 160.48425056 -39.33418195 157.00907632 -41.75161743 151.1791687 C-42.92649692 146.88075033 -42.99059681 142.97742969 -42.98583984 138.54345703 C-42.99255707 137.63859558 -42.99927429 136.73373413 -43.00619507 135.80145264 C-43.0251379 132.82070369 -43.02909729 129.84018033 -43.03125 126.859375 C-43.03768012 124.77961129 -43.04440864 122.69984849 -43.05142212 120.62008667 C-43.06338532 116.26411848 -43.06710388 111.90822955 -43.06591797 107.55224609 C-43.06571475 101.98161206 -43.09302454 96.41148801 -43.12746239 90.84097481 C-43.14974223 86.54631229 -43.15375518 82.25177234 -43.15269852 77.95705795 C-43.15505254 75.90383012 -43.16386479 73.85059882 -43.17936325 71.79742813 C-43.19904645 68.9207449 -43.19317608 66.04515944 -43.18115234 63.16845703 C-43.19239136 62.32767609 -43.20363037 61.48689514 -43.21520996 60.62063599 C-43.1390333 53.41741486 -40.97684919 48.29329128 -36.1953125 42.9140625 C-30.71023787 38.1146222 -30.71023787 38.1146222 -27.5703125 36.9140625 C-24.71539255 35.10594653 -24.56599371 32.93276197 -23.6953125 29.7265625 C-23.48546566 27.46074792 -23.34203295 25.18801463 -23.2578125 22.9140625 C-22.34844223 9.21577064 -22.34844223 9.21577064 -17.90725708 5.04898071 C-11.86878955 0.7968057 -7.30393112 -0.14346041 0 0 Z M-12.6953125 10.7265625 C-14.76947917 13.83781251 -15.02275344 15.0142593 -15.328125 18.61328125 C-15.41191406 19.55107422 -15.49570312 20.48886719 -15.58203125 21.45507812 C-15.66066406 22.43154297 -15.73929688 23.40800781 -15.8203125 24.4140625 C-15.90667969 25.40212891 -15.99304688 26.39019531 -16.08203125 27.40820312 C-16.29410973 29.84710565 -16.49822451 32.28641038 -16.6953125 34.7265625 C-9.42860378 34.90344597 -2.16173281 35.06940661 5.10554314 35.22133827 C8.47985568 35.29222779 11.85399619 35.36690981 15.22802734 35.45019531 C19.10500162 35.54402747 22.98205878 35.62488157 26.859375 35.703125 C28.07398407 35.73532135 29.28859314 35.7675177 30.54000854 35.8006897 C31.66101959 35.82086151 32.78203064 35.84103333 33.93701172 35.86181641 C34.92740448 35.88402252 35.91779724 35.90622864 36.9382019 35.92910767 C39.49446217 35.96627508 39.49446217 35.96627508 41.3046875 33.7265625 C41.02526295 32.05001521 40.67822005 30.38468262 40.3046875 28.7265625 C40.15590974 24.92446419 40.05264744 21.12455929 39.9765625 17.3203125 C39.14761565 12.88641072 37.86842901 11.4245363 34.3046875 8.7265625 C30.06474533 7.52383635 25.7819051 7.54934384 21.40625 7.5234375 C20.65306488 7.51773743 19.89987976 7.51203735 19.12387085 7.50616455 C17.53539418 7.49674983 15.9468983 7.49019466 14.35839844 7.48632812 C11.94431107 7.4766213 9.5310755 7.44556512 7.1171875 7.4140625 C5.56771334 7.40753131 4.01823315 7.40228129 2.46875 7.3984375 C1.75498199 7.3860907 1.04121399 7.3737439 0.30581665 7.36102295 C-4.82819855 7.38354686 -8.24016374 8.34219538 -12.6953125 10.7265625 Z M57.3046875 54.7265625 C57.25839448 66.01812408 57.22283374 77.30966317 57.20106316 88.60130024 C57.19061561 93.84417886 57.17643868 99.08699267 57.15380859 104.32983398 C57.13211486 109.38726122 57.12012619 114.44462601 57.11493301 119.50209618 C57.11123101 121.4338498 57.10400216 123.36559992 57.09322739 125.29732704 C57.07875859 127.99817986 57.07670762 130.69877302 57.07763672 133.3996582 C57.07044617 134.20238663 57.06325562 135.00511505 57.05584717 135.83216858 C57.07017149 139.66762328 57.12510094 141.45718266 59.3046875 144.7265625 C59.35095594 133.28734614 59.38652869 121.84815191 59.40831184 110.40886116 C59.41876479 105.09757312 59.43295147 99.78634894 59.45556641 94.47509766 C59.47724102 89.35283655 59.48924473 84.230637 59.49444199 79.10833359 C59.49814744 77.1506338 59.50538291 75.19293752 59.51614761 73.23526382 C59.53059107 70.50068029 59.53266846 67.7663536 59.53173828 65.03173828 C59.53892883 64.21606384 59.54611938 63.4003894 59.55352783 62.55999756 C59.71411379 58.17521147 59.71411379 58.17521147 57.3046875 54.7265625 Z M-16.6953125 165.7265625 C-17.19203166 186.29681734 -17.19203166 186.29681734 -9.6953125 192.7265625 C-9.3653125 193.0565625 -9.0353125 193.3865625 -8.6953125 193.7265625 C-2.80164179 194.0200017 3.09459604 194.04071544 8.99487305 194.07666016 C10.98425012 194.09318834 12.97356858 194.12043676 14.96264648 194.15869141 C17.83087988 194.21358811 20.69771749 194.23535703 23.56640625 194.25 C24.8932972 194.28400406 24.8932972 194.28400406 26.24699402 194.31869507 C30.52554283 194.30412966 33.43072863 194.09261044 36.86523438 191.39599609 C39.8898198 188.08626661 40.06303066 186.40757648 40.1171875 181.9765625 C40.24785136 176.42645967 40.68327799 171.31924808 41.3046875 165.7265625 C22.1646875 165.7265625 3.0246875 165.7265625 -16.6953125 165.7265625 Z " fill="#264653" transform="translate(76.6953125,39.2734375)"/>
<path d="M0 0 C0.99168182 -0.00099701 1.98336365 -0.00199402 3.00509644 -0.00302124 C5.08762691 0.00163198 7.17017163 0.02092167 9.25244141 0.05419922 C12.42843663 0.10154385 15.60108312 0.09528408 18.77734375 0.08203125 C20.80991571 0.0931824 22.84247365 0.10740067 24.875 0.125 C25.81683136 0.12317719 26.75866272 0.12135437 27.72903442 0.11947632 C34.6501401 0.2674992 39.17946457 1.53136273 44.16918945 6.6328125 C45.54913415 9.17729879 46.0199938 11.36794508 46.47265625 14.2265625 C46.64345703 15.2784375 46.81425781 16.3303125 46.99023438 17.4140625 C47.15587891 18.5071875 47.32152344 19.6003125 47.4921875 20.7265625 C47.66943359 21.8196875 47.84667969 22.9128125 48.02929688 24.0390625 C48.71156314 28.33813021 49.3046875 32.36459033 49.3046875 36.7265625 C49.9646875 36.7678125 50.6246875 36.8090625 51.3046875 36.8515625 C57.0547526 38.52866482 61.09168387 41.98218924 64.48046875 46.85546875 C66.78217999 51.10288125 67.1118683 55.28340203 67.4296875 60.0390625 C67.51432283 65.90830375 67.51432283 65.90830375 70.3046875 70.7265625 C70.56347656 72.66601562 70.56347656 72.66601562 70.5703125 75.0078125 C70.57417969 76.27044922 70.57417969 76.27044922 70.578125 77.55859375 C70.57039063 78.43902344 70.56265625 79.31945312 70.5546875 80.2265625 C70.56628906 81.54720703 70.56628906 81.54720703 70.578125 82.89453125 C70.57554687 83.73628906 70.57296875 84.57804687 70.5703125 85.4453125 C70.56805664 86.21810547 70.56580078 86.99089844 70.56347656 87.78710938 C70.3046875 89.7265625 70.3046875 89.7265625 68.3046875 91.7265625 C68.00100917 94.08167152 68.00100917 94.08167152 68.04931641 96.84375 C68.04235748 97.91246338 68.03539856 98.98117676 68.02822876 100.08227539 C68.02972427 101.82432251 68.02972427 101.82432251 68.03125 103.6015625 C68.01094543 106.05599401 67.99009437 108.51042106 67.96875 110.96484375 C67.94622447 114.83776605 67.92971188 118.71051149 67.92382812 122.58349609 C67.91425602 126.31901181 67.880401 130.05372756 67.84375 133.7890625 C67.84879547 134.9342334 67.85384094 136.0794043 67.85903931 137.25927734 C67.76540616 144.98198554 66.95841146 152.65311835 61.59463501 158.63305664 C58.87520844 161.13371085 56.37261599 162.69580243 52.9921875 164.2265625 C50.10798145 165.48179757 50.10798145 165.48179757 49.19140625 168.26171875 C47.94381857 173.13665385 47.61215456 177.99603804 47.26953125 183.00585938 C46.66936171 189.7039779 45.0619768 194.30334936 39.84033203 198.89233398 C34.9643183 201.42192183 30.8462078 201.30166301 25.4296875 201.2578125 C24.38699707 201.2616394 23.34430664 201.26546631 22.27001953 201.26940918 C20.07127921 201.27212428 17.87250636 201.26479135 15.67382812 201.24804688 C12.31567103 201.22663254 8.95965335 201.24786329 5.6015625 201.2734375 C3.4609328 201.27079415 1.32030442 201.26566904 -0.8203125 201.2578125 C-1.82046387 201.26590942 -2.82061523 201.27400635 -3.85107422 201.28234863 C-9.63258022 201.20489565 -13.16424048 200.68676253 -17.6953125 196.7265625 C-23.03223906 189.80298209 -22.91401421 183.99753465 -23.31640625 175.453125 C-23.6840455 171.83737405 -24.17792864 169.02627026 -25.6953125 165.7265625 C-27.61523093 164.20748011 -27.61523093 164.20748011 -29.9453125 163.2890625 C-35.52796703 160.48425056 -39.33418195 157.00907632 -41.75161743 151.1791687 C-42.92649692 146.88075033 -42.99059681 142.97742969 -42.98583984 138.54345703 C-42.99255707 137.63859558 -42.99927429 136.73373413 -43.00619507 135.80145264 C-43.0251379 132.82070369 -43.02909729 129.84018033 -43.03125 126.859375 C-43.03768012 124.77961129 -43.04440864 122.69984849 -43.05142212 120.62008667 C-43.06338532 116.26411848 -43.06710388 111.90822955 -43.06591797 107.55224609 C-43.06571475 101.98161206 -43.09302454 96.41148801 -43.12746239 90.84097481 C-43.14974223 86.54631229 -43.15375518 82.25177234 -43.15269852 77.95705795 C-43.15505254 75.90383012 -43.16386479 73.85059882 -43.17936325 71.79742813 C-43.19904645 68.9207449 -43.19317608 66.04515944 -43.18115234 63.16845703 C-43.19239136 62.32767609 -43.20363037 61.48689514 -43.21520996 60.62063599 C-43.1390333 53.41741486 -40.97684919 48.29329128 -36.1953125 42.9140625 C-30.71023787 38.1146222 -30.71023787 38.1146222 -27.5703125 36.9140625 C-24.71539255 35.10594653 -24.56599371 32.93276197 -23.6953125 29.7265625 C-23.48546566 27.46074792 -23.34203295 25.18801463 -23.2578125 22.9140625 C-22.34844223 9.21577064 -22.34844223 9.21577064 -17.90725708 5.04898071 C-11.86878955 0.7968057 -7.30393112 -0.14346041 0 0 Z M-12.6953125 10.7265625 C-14.76947917 13.83781251 -15.02275344 15.0142593 -15.328125 18.61328125 C-15.41191406 19.55107422 -15.49570312 20.48886719 -15.58203125 21.45507812 C-15.66066406 22.43154297 -15.73929688 23.40800781 -15.8203125 24.4140625 C-15.90667969 25.40212891 -15.99304688 26.39019531 -16.08203125 27.40820312 C-16.29410973 29.84710565 -16.49822451 32.28641038 -16.6953125 34.7265625 C-9.42860378 34.90344597 -2.16173281 35.06940661 5.10554314 35.22133827 C8.47985568 35.29222779 11.85399619 35.36690981 15.22802734 35.45019531 C19.10500162 35.54402747 22.98205878 35.62488157 26.859375 35.703125 C28.07398407 35.73532135 29.28859314 35.7675177 30.54000854 35.8006897 C31.66101959 35.82086151 32.78203064 35.84103333 33.93701172 35.86181641 C34.92740448 35.88402252 35.91779724 35.90622864 36.9382019 35.92910767 C39.49446217 35.96627508 39.49446217 35.96627508 41.3046875 33.7265625 C41.02526295 32.05001521 40.67822005 30.38468262 40.3046875 28.7265625 C40.15590974 24.92446419 40.05264744 21.12455929 39.9765625 17.3203125 C39.14761565 12.88641072 37.86842901 11.4245363 34.3046875 8.7265625 C30.06474533 7.52383635 25.7819051 7.54934384 21.40625 7.5234375 C20.65306488 7.51773743 19.89987976 7.51203735 19.12387085 7.50616455 C17.53539418 7.49674983 15.9468983 7.49019466 14.35839844 7.48632812 C11.94431107 7.4766213 9.5310755 7.44556512 7.1171875 7.4140625 C5.56771334 7.40753131 4.01823315 7.40228129 2.46875 7.3984375 C1.75498199 7.3860907 1.04121399 7.3737439 0.30581665 7.36102295 C-4.82819855 7.38354686 -8.24016374 8.34219538 -12.6953125 10.7265625 Z M-31.4375 48.32421875 C-35.56713567 53.66426488 -35.85077854 57.64869455 -35.87231445 64.2019043 C-35.87888565 65.06731339 -35.88545685 65.93272247 -35.89222717 66.82435608 C-35.91195442 69.69149869 -35.92362259 72.55858889 -35.93359375 75.42578125 C-35.93766928 76.40597544 -35.9417448 77.38616962 -35.94594383 78.39606667 C-35.96680388 83.58590102 -35.9811049 88.77570896 -35.99047852 93.96557617 C-36.00153218 99.31767864 -36.03592037 104.66936412 -36.07565022 110.02131939 C-36.101839 114.14354711 -36.11017246 118.26567592 -36.11375999 122.38797951 C-36.11862147 124.36027652 -36.13022289 126.33256924 -36.14879799 128.30478477 C-36.1732335 131.07160499 -36.17221618 133.8373522 -36.1652832 136.60424805 C-36.17809326 137.41233917 -36.19090332 138.2204303 -36.20410156 139.05300903 C-36.15265185 144.71333567 -34.8271575 148.98179604 -31.6953125 153.7265625 C-26.6472728 158.64516528 -21.95703156 159.97194696 -15.01245117 160.01708984 C-14.36132858 160.02380707 -13.71020599 160.03052429 -13.03935242 160.03744507 C-10.89724999 160.05636601 -8.75546194 160.06034639 -6.61328125 160.0625 C-5.11501439 160.06893275 -3.61674877 160.07566146 -2.1184845 160.08267212 C1.0194286 160.09463061 4.15723174 160.09835449 7.29516602 160.09716797 C11.2998707 160.09696502 15.30386384 160.1242479 19.30840015 160.15871239 C22.40296107 160.18104265 25.4973525 160.18500363 28.5919857 160.18394852 C30.06746557 160.18629601 31.54295072 160.19507121 33.0183506 160.21061325 C41.80544402 160.29450201 49.09117914 160.35373646 56.00593567 154.21664429 C57.52370441 152.80472014 57.52370441 152.80472014 57.3046875 150.7265625 C55.9846875 150.7265625 54.6646875 150.7265625 53.3046875 150.7265625 C54.0546875 148.2890625 54.0546875 148.2890625 55.3046875 145.7265625 C57.3828125 145.06640625 57.3828125 145.06640625 59.3046875 144.7265625 C59.35095594 133.28734614 59.38652869 121.84815191 59.40831184 110.40886116 C59.41876479 105.09757312 59.43295147 99.78634894 59.45556641 94.47509766 C59.47724102 89.35283655 59.48924473 84.230637 59.49444199 79.10833359 C59.49814744 77.1506338 59.50538291 75.19293752 59.51614761 73.23526382 C59.53059107 70.50068029 59.53266846 67.7663536 59.53173828 65.03173828 C59.54252411 63.80822662 59.54252411 63.80822662 59.55352783 62.55999756 C59.71411379 58.17521147 59.71411379 58.17521147 57.3046875 54.7265625 C57.3046875 74.8565625 57.3046875 94.9865625 57.3046875 115.7265625 C56.9921875 86.6015625 56.9921875 86.6015625 56.91674805 77.43310547 C56.88445559 75.02830453 56.85108152 72.62351776 56.81640625 70.21875 C56.81016235 68.97552979 56.80391846 67.73230957 56.79748535 66.45141602 C56.76757507 64.65571167 56.76757507 64.65571167 56.73706055 62.82373047 C56.72595749 61.78892548 56.71485443 60.75412048 56.70341492 59.68795776 C56.23117217 56.18055555 55.10812902 53.75698978 53.3046875 50.7265625 C51.25375605 49.32189297 51.25375605 49.32189297 49.3046875 48.7265625 C49.6346875 47.7365625 49.9646875 46.7465625 50.3046875 45.7265625 C49.21756281 44.11294311 49.21756281 44.11294311 47.3046875 42.7265625 C44.22406966 42.26165514 44.22406966 42.26165514 40.64941406 42.32250977 C39.97747009 42.31564651 39.30552612 42.30878326 38.61322021 42.30171204 C36.39036959 42.28340263 34.16822243 42.28728891 31.9453125 42.29296875 C30.39694998 42.28840709 28.84858948 42.28310156 27.30023193 42.27708435 C24.05195912 42.2681438 20.80393198 42.27058481 17.55566406 42.28051758 C13.40504392 42.2919761 9.2552785 42.27184948 5.10477066 42.24260044 C1.90471046 42.22419249 -1.29514699 42.22454053 -4.49524689 42.23023796 C-6.02457117 42.23039079 -7.55390953 42.2243782 -9.08318329 42.21194649 C-21.28982285 42.1004929 -21.28982285 42.1004929 -31.4375 48.32421875 Z M-16.6953125 165.7265625 C-17.19203166 186.29681734 -17.19203166 186.29681734 -9.6953125 192.7265625 C-9.3653125 193.0565625 -9.0353125 193.3865625 -8.6953125 193.7265625 C-2.80164179 194.0200017 3.09459604 194.04071544 8.99487305 194.07666016 C10.98425012 194.09318834 12.97356858 194.12043676 14.96264648 194.15869141 C17.83087988 194.21358811 20.69771749 194.23535703 23.56640625 194.25 C24.8932972 194.28400406 24.8932972 194.28400406 26.24699402 194.31869507 C30.52554283 194.30412966 33.43072863 194.09261044 36.86523438 191.39599609 C39.8898198 188.08626661 40.06303066 186.40757648 40.1171875 181.9765625 C40.24785136 176.42645967 40.68327799 171.31924808 41.3046875 165.7265625 C22.1646875 165.7265625 3.0246875 165.7265625 -16.6953125 165.7265625 Z " fill="#ffffff" transform="translate(76.6953125,39.2734375)"/>
<path d="M0 0 C2.03772833 2.97168714 2.22724062 5.64162808 2.5 9.1875 C0.53309708 8.22782429 -1.38491968 7.25772719 -3.25390625 6.1171875 C-8.91292751 2.81711031 -14.0401835 2.26594723 -20.5 3.1875 C-23.9750788 4.26082766 -27.20631473 5.65741113 -30.5 7.1875 C-31.49 7.5175 -32.48 7.8475 -33.5 8.1875 C-35.31550877 12.29628301 -35.82068873 15.73103241 -35.5 20.1875 C-34.34474696 23.11819548 -34.34474696 23.11819548 -32.6875 25.875 C-32.16542969 26.80699219 -31.64335937 27.73898438 -31.10546875 28.69921875 C-29.71004828 30.86195073 -28.30579578 32.39254984 -26.5 34.1875 C-26.5 34.8475 -26.5 35.5075 -26.5 36.1875 C-25.015 36.6825 -25.015 36.6825 -23.5 37.1875 C-23.5 37.8475 -23.5 38.5075 -23.5 39.1875 C-22.18 39.8475 -20.86 40.5075 -19.5 41.1875 C-19.5 41.8475 -19.5 42.5075 -19.5 43.1875 C-18.92870361 43.45393311 -18.35740723 43.72036621 -17.76879883 43.99487305 C-15.39261713 45.24394736 -13.35128488 46.66622181 -11.19921875 48.26953125 C-10.38646484 48.87216797 -9.57371094 49.47480469 -8.73632812 50.09570312 C-7.89521484 50.72412109 -7.05410156 51.35253906 -6.1875 52 C-3.71907959 53.8354921 -1.2504744 55.66958746 1.23339844 57.48413086 C2.66314642 58.55859787 4.06306689 59.67512282 5.41503906 60.84594727 C7.3202059 62.5283451 7.3202059 62.5283451 10.5 64.1875 C13.43302265 63.51040177 15.0927158 62.91640951 17.625 61.5 C21.90138617 59.27831998 24.46238294 58.1875 29.5 58.1875 C29.5 54.2275 29.5 50.2675 29.5 46.1875 C30.49 45.8575 31.48 45.5275 32.5 45.1875 C34.66308594 46.31958008 34.66308594 46.31958008 36.5 48.1875 C36.95410156 50.45581055 36.95410156 50.45581055 36.890625 53.07421875 C36.87773437 54.01201172 36.86484375 54.94980469 36.8515625 55.91601562 C36.81804687 56.89248047 36.78453125 57.86894531 36.75 58.875 C36.73195313 59.86306641 36.71390625 60.85113281 36.6953125 61.86914062 C36.64815447 64.30956842 36.58236042 66.74804769 36.5 69.1875 C37.20576172 67.72376953 37.20576172 67.72376953 37.92578125 66.23046875 C38.55436539 64.94515492 39.18328952 63.66000733 39.8125 62.375 C40.12123047 61.73240234 40.42996094 61.08980469 40.74804688 60.42773438 C43.82289651 54.18093459 43.82289651 54.18093459 46.5 52.1875 C49.4375 51.6875 49.4375 51.6875 52.5 52.1875 C57.24213036 56.4985276 57.63775389 61.65798947 58.5625 67.6875 C59.65861386 75.94677206 59.65861386 75.94677206 63.5 83.1875 C64.16 83.5175 64.82 83.8475 65.5 84.1875 C65.561875 83.053125 65.62375 81.91875 65.6875 80.75 C67.06462433 69.90514587 76.32123318 58.99713405 84.5 52.1875 C90.16516024 48.87391571 95.12857815 48.84136642 101.5 49.1875 C101.02542248 54.01237143 100.42049653 58.6898359 99.4375 63.4375 C98.2899288 69.59265462 97.67697352 75.95727801 98.5 82.1875 C99.89438885 84.05989923 99.89438885 84.05989923 101.5 85.1875 C106.38270118 84.35530154 106.38270118 84.35530154 109.8125 81.1875 C110.1528125 80.1975 110.1528125 80.1975 110.5 79.1875 C111.16 78.5275 111.82 77.8675 112.5 77.1875 C112.50903032 74.71921276 112.40209285 72.38803035 112.1875 69.9375 C112.13408447 69.23109375 112.08066895 68.5246875 112.02563477 67.796875 C111.91392864 66.32714392 111.79789528 64.85773589 111.67773438 63.38867188 C111.40331867 59.99013896 111.17351609 56.58890841 110.9375 53.1875 C110.79240681 51.18744617 110.64686943 49.18742418 110.5 47.1875 C113.68990377 47.44614085 115.10334093 47.74355707 117.26953125 50.16796875 C118.94993089 54.29161613 119.06552108 58.08436306 119.1875 62.5 C119.22166016 63.33595703 119.25582031 64.17191406 119.29101562 65.03320312 C119.37305461 67.08417772 119.4382151 69.13581538 119.5 71.1875 C122.164277 68.6104073 124.15250882 65.87483713 126.25 62.8125 C130.74142651 56.62758481 134.3808986 52.44191642 142.125 51.1875 C146.08924813 50.95113086 148.43424976 51.49335585 151.5 54.1875 C154.54661749 58.9720505 153.53071386 63.84113531 152.5 69.1875 C151.46074521 72.06884622 150.11290107 74.58988038 148.5 77.1875 C148.14292969 77.78949219 147.78585937 78.39148438 147.41796875 79.01171875 C146.375 80.6875 146.375 80.6875 144.5 83.1875 C143.84 83.1875 143.18 83.1875 142.5 83.1875 C142.17 84.1775 141.84 85.1675 141.5 86.1875 C139.27734375 87.94140625 139.27734375 87.94140625 136.4375 89.75 C135.51839844 90.34941406 134.59929687 90.94882813 133.65234375 91.56640625 C129.93962609 93.47567246 126.55782013 94.22859675 122.5 95.1875 C122.48969254 95.84926743 122.47938507 96.51103485 122.46876526 97.19285583 C122.36094051 104.05421313 122.24632391 110.91543266 122.12768555 117.77661133 C122.08425934 120.34038421 122.04259015 122.90418746 122.00268555 125.46801758 C121.94516853 129.14413628 121.88142137 132.82010099 121.81640625 136.49609375 C121.79969376 137.65024277 121.78298126 138.80439178 121.76576233 139.99351501 C121.74581711 141.05453934 121.72587189 142.11556366 121.70532227 143.20874023 C121.68977798 144.14805893 121.6742337 145.08737762 121.65821838 146.05516052 C121.5 148.1875 121.5 148.1875 120.5 149.1875 C118.83382885 149.22813832 117.16611905 149.230221 115.5 149.1875 C114.57421359 127.17545069 114.37641646 105.21579146 114.5 83.1875 C112.01369351 85.14541516 109.64371114 87.03943398 107.4375 89.3125 C105.41958297 91.26532294 104.17638499 92.34635043 101.5 93.1875 C97.875 93 97.875 93 94.5 92.1875 C91.41231929 87.55597894 91.5 82.61501158 91.5 77.1875 C91.09007812 77.8371875 90.68015625 78.486875 90.2578125 79.15625 C89.71898437 79.9915625 89.18015625 80.826875 88.625 81.6875 C88.09132813 82.5228125 87.55765625 83.358125 87.0078125 84.21875 C86.51023437 84.8684375 86.01265625 85.518125 85.5 86.1875 C84.84 86.1875 84.18 86.1875 83.5 86.1875 C83.005 87.6725 83.005 87.6725 82.5 89.1875 C81.84 89.1875 81.18 89.1875 80.5 89.1875 C80.5 89.8475 80.5 90.5075 80.5 91.1875 C74.43939394 95.1875 74.43939394 95.1875 70.25 95.1875 C67.03000312 94.01659204 66.38023713 92.96698098 64.5 90.1875 C63.675 89.6925 62.85 89.1975 62 88.6875 C56.84498721 85.59449233 55.18233094 80.76675573 53.5 75.1875 C52.91240896 72.59518659 52.39792224 70.00308303 51.9296875 67.38671875 C51.5170363 65.02453626 51.5170363 65.02453626 50.5 62.1875 C49.84 62.1875 49.18 62.1875 48.5 62.1875 C44.61467396 68.58072578 42.02339032 74.93124556 39.8125 82.0625 C39.229337 83.91535049 38.64226405 85.76697613 38.05078125 87.6171875 C37.67433472 88.82737549 37.67433472 88.82737549 37.2902832 90.06201172 C36.5 92.1875 36.5 92.1875 34.5 95.1875 C30.625 94.3125 30.625 94.3125 29.5 93.1875 C29.41209025 90.89598583 29.39305962 88.60177476 29.40234375 86.30859375 C29.4037587 85.6219313 29.40517365 84.93526886 29.40663147 84.22779846 C29.41224521 82.02682199 29.42479993 79.82594591 29.4375 77.625 C29.44251324 76.13606917 29.44707645 74.64713676 29.45117188 73.15820312 C29.46221907 69.50126925 29.47949287 65.84439442 29.5 62.1875 C25.70132473 62.1875 24.81435078 63.29881336 21.9375 65.6875 C17.70833333 69.1875 17.70833333 69.1875 15.5 69.1875 C15.5 69.8475 15.5 70.5075 15.5 71.1875 C16.49 71.5175 17.48 71.8475 18.5 72.1875 C21.25779795 75.55814193 22.17839399 78.70787432 21.95703125 83.0859375 C20.26010033 90.88891899 12.6866597 95.83210739 6.58984375 100.203125 C-0.07140285 104.48114431 -7.44609863 107.53196421 -15.5 107.1875 C-18.0625 106.3125 -18.0625 106.3125 -19.5 104.1875 C-20.88614034 98.89289836 -19.62499939 94.70328503 -16.9375 90.0625 C-11.54433937 82.19654165 -4.3867765 75.72894152 2.5 69.1875 C-1.00121852 65.40797949 -4.98366437 62.52264345 -9.125 59.5 C-39.00090856 37.3371528 -39.00090856 37.3371528 -42.5 21.1875 C-43.25263802 13.98553277 -41.73139119 8.65028237 -38.5 2.1875 C-37.84 2.1875 -37.18 2.1875 -36.5 2.1875 C-36.17 1.1975 -35.84 0.2075 -35.5 -0.8125 C-24.10002834 -8.80100882 -11.07862859 -8.03200573 0 0 Z M92.5 55.1875 C91.01444617 56.11484572 89.53672494 57.05474813 88.0625 58 C87.23878906 58.52207031 86.41507813 59.04414063 85.56640625 59.58203125 C83.22172214 61.09710713 83.22172214 61.09710713 82.5 64.1875 C81.84 64.1875 81.18 64.1875 80.5 64.1875 C75.4806543 70.4143298 71.88019975 77.09241372 71.5 85.1875 C71.83 85.8475 72.16 86.5075 72.5 87.1875 C79.8171621 85.41364252 84.00407235 78.21072858 87.75 72.1875 C92.18832282 64.98408006 92.18832282 64.98408006 93.06640625 56.9609375 C92.87949219 56.37570313 92.69257813 55.79046875 92.5 55.1875 Z M139.66796875 58.00390625 C133.54212079 62.24487792 129.55057376 68.03098634 125.5 74.1875 C125.04109375 74.87714844 124.5821875 75.56679687 124.109375 76.27734375 C121.99849408 79.67407819 121.01382881 82.17658771 121.5 86.1875 C124.47663673 87.49722016 125.6681915 87.13037836 128.8125 86.0625 C137.07952839 82.08796712 141.32999823 77.44354378 145.5 69.1875 C146.6577506 65.71424819 146.56866652 62.82682552 146.5 59.1875 C144.05486233 57.50646785 142.47946064 56.75102394 139.66796875 58.00390625 Z M1.625 79.25 C1.09342285 79.75297607 0.5618457 80.25595215 0.01416016 80.77416992 C-8.03583441 88.29129713 -8.03583441 88.29129713 -12.5 98.1875 C-11.42455565 99.47402361 -11.42455565 99.47402361 -8.8828125 99.44921875 C-4.87452609 99.13910883 -1.88267889 97.82173 1.625 96 C2.53572266 95.56204102 2.53572266 95.56204102 3.46484375 95.11523438 C8.57196652 92.5282931 12.65709758 88.71620726 14.5 83.1875 C14.18533358 79.33283632 13.66750011 77.43875017 11.5 74.1875 C6.54853417 74.1875 4.98261972 76.00745363 1.625 79.25 Z " fill="#ffffff" transform="translate(214.5,71.8125)"/>
<path d="M0 0 C3.10164769 2.55024365 4.72566416 4.17699247 6 8 C7.48642131 27.59952668 3.28974444 46.77612673 -3.85180664 64.99145508 C-6.73226897 73.00572743 -5.92978612 80.702602 -5 89 C-4.8850116 90.03731262 -4.8850116 90.03731262 -4.7677002 91.09558105 C-4.21583331 95.94661862 -3.58576786 100.78604184 -2.9375 105.625 C-2.65623779 107.73797934 -2.37666045 109.85112623 -2.10169983 111.9649353 C-1.85559359 113.85556926 -1.60365486 115.74544139 -1.35131836 117.63525391 C-1.02215976 120.78776525 -0.93510047 123.83350659 -1 127 C-1.99 127.495 -1.99 127.495 -3 128 C-8.18317992 122.81682008 -9.27938824 120.8193107 -10.19140625 113.58984375 C-10.30097153 112.74780899 -10.4105368 111.90577423 -10.52342224 111.03822327 C-10.87377545 108.33848133 -11.21819635 105.63801946 -11.5625 102.9375 C-11.79843892 101.1112778 -12.03476198 99.28510518 -12.27148438 97.45898438 C-12.85212164 92.9732203 -13.4274383 88.48680169 -14 84 C-14.60835693 84.74838135 -15.21671387 85.4967627 -15.84350586 86.26782227 C-16.64667236 87.25322998 -17.44983887 88.2386377 -18.27734375 89.25390625 C-19.07132568 90.2291626 -19.86530762 91.20441895 -20.68334961 92.20922852 C-26.12019344 98.75876607 -31.50935423 104.92926422 -40.296875 106.37890625 C-45.64890508 106.65728365 -48.87788125 105.63139033 -53 102 C-57.32303295 96.13302672 -56.56433789 89.99321417 -56 83 C-54.38611411 74.24057583 -50.56161512 68.04359287 -44 62 C-40.51019789 60.25509894 -36.80759041 60.43639798 -33 61 C-29.875 63 -29.875 63 -28 66 C-27.7349191 73.81988643 -31.57527716 80.2763185 -35.75 86.6875 C-38.63083909 89.6483624 -41.83510058 92.02198446 -45.171875 94.44921875 C-45.77515625 94.96097656 -46.3784375 95.47273438 -47 96 C-47 96.66 -47 97.32 -47 98 C-41.69103723 99.42435587 -38.81720928 98.53998308 -34 96 C-32.31522656 94.68962066 -30.64351457 93.36176922 -29 92 C-28.34 92 -27.68 92 -27 92 C-26.505 90.515 -26.505 90.515 -26 89 C-25.278125 88.505 -24.55625 88.01 -23.8125 87.5 C-18.0602298 82.38687093 -14.74819614 75.64938075 -14.24291992 67.96875 C-14.2092014 65.81275966 -14.20627259 63.65611823 -14.23046875 61.5 C-14.21346672 59.76459961 -14.21346672 59.76459961 -14.19612122 57.99414062 C-14.16563265 54.32896057 -14.17517614 50.66526184 -14.1875 47 C-14.17324485 43.33521727 -14.15070637 39.67058062 -14.12532043 36.00585938 C-14.11246955 33.73636007 -14.10746882 31.46679706 -14.11186218 29.19726562 C-14.10017313 8.10736682 -14.10017313 8.10736682 -8 1 C-5.11138291 -0.44430855 -3.20352299 -0.37688506 0 0 Z M-4 7 C-10.6794156 21.34701872 -11.43365236 42.63676043 -8 58 C-5.7230551 54.58458265 -4.95404314 51.37278561 -4.0625 47.4375 C-3.89137695 46.69169678 -3.72025391 45.94589355 -3.54394531 45.17749023 C0.85916955 27.7417775 0.85916955 27.7417775 1 10 C0.34 9.01 -0.32 8.02 -1 7 C-1.99 7 -2.98 7 -4 7 Z M-38 67 C-43.10955723 69.95816471 -45.82119934 74.65897116 -48 80 C-48.63334898 83.06041625 -48.8506057 85.86271968 -49 89 C-48.34 88.67 -47.68 88.34 -47 88 C-47 87.34 -47 86.68 -47 86 C-46.01 86 -45.02 86 -44 86 C-41.77068176 84.18739868 -41.77068176 84.18739868 -40 82 C-40 81.34 -40 80.68 -40 80 C-39.34 80 -38.68 80 -38 80 C-35.58314288 75.77050005 -34.65166856 72.87664009 -35 68 C-35.99 67.67 -36.98 67.34 -38 67 Z " fill="#ffffff" transform="translate(498,60)"/>
<path d="M0 0 C1.98 0 3.96 0 6 0 C7.08789706 24.05461272 2.39176967 48.43671794 -2 72 C-2.2371875 73.28438965 -2.474375 74.5687793 -2.71875 75.89208984 C-2.96625 77.14844238 -3.21375 78.40479492 -3.46875 79.69921875 C-3.68982422 80.83576904 -3.91089844 81.97231934 -4.13867188 83.14331055 C-5.00377474 86.01251934 -5.59561541 87.26081313 -8 89 C-10 89 -10 89 -12 88 C-13.05577301 86.36809279 -14.04813071 84.69461578 -15 83 C-15.67289062 81.80697266 -15.67289062 81.80697266 -16.359375 80.58984375 C-21.90416071 70.01425528 -27.12554797 57.85530051 -29 46 C-30.9249336 48.8874004 -31.8194424 51.14453669 -32.8828125 54.41796875 C-33.24157471 55.50045898 -33.60033691 56.58294922 -33.9699707 57.69824219 C-34.35113037 58.84969727 -34.73229004 60.00115234 -35.125 61.1875 C-39.44893329 73.97191478 -44.34198975 85.84263408 -52 97 C-53.65 96.67 -55.3 96.34 -57 96 C-59.09238378 88.10846636 -59.70414549 80.18433956 -60.31863403 72.07562256 C-60.56378755 68.84758228 -60.82403833 65.62081683 -61.08375549 62.3939209 C-61.21218158 60.7980241 -61.33998527 59.20207708 -61.46714783 57.6060791 C-61.95246731 51.52453083 -62.46865236 45.44704697 -63.0625 39.375 C-63.13750732 38.59930664 -63.21251465 37.82361328 -63.28979492 37.02441406 C-63.71433148 32.91765397 -64.37744064 28.95711495 -65.3125 24.9375 C-65.539375 23.638125 -65.76625 22.33875 -66 21 C-64.7109375 19.265625 -64.7109375 19.265625 -63 18 C-60.3125 17.8125 -60.3125 17.8125 -58 18 C-56.20628489 21.89697317 -55.66732048 25.18908814 -55.4375 29.4609375 C-55.36394287 30.72703857 -55.29038574 31.99313965 -55.21459961 33.29760742 C-55.17962372 33.96343842 -55.14464783 34.62926941 -55.10861206 35.3152771 C-54.92493834 38.79847188 -54.71268464 42.27995425 -54.50390625 45.76171875 C-54.44222008 46.80792137 -54.44222008 46.80792137 -54.37928772 47.8752594 C-53.99430234 54.3209541 -53.49679516 60.75455433 -52.9375 67.1875 C-52.81858398 68.60071533 -52.81858398 68.60071533 -52.69726562 70.04248047 C-52.62056641 70.9088916 -52.54386719 71.77530273 -52.46484375 72.66796875 C-52.399021 73.41328857 -52.33319824 74.1586084 -52.26538086 74.92651367 C-51.99857071 77.0111674 -51.55181998 78.97379942 -51 81 C-47.18409136 73.18956573 -44.27641095 65.21421839 -41.62939453 56.94824219 C-40.59523691 53.74708709 -39.51214454 50.56278348 -38.4375 47.375 C-36.45799965 41.44898791 -34.59282666 35.4957708 -32.796875 29.51171875 C-32 27 -32 27 -31 25 C-29.35 25 -27.7 25 -26 25 C-24.66664399 29.41346662 -23.6166877 33.77928381 -22.75708008 38.30688477 C-20.46291508 50.26904658 -17.47638969 63.04722063 -12 74 C-9.4682139 68.62714711 -8.06505078 63.51933644 -7 57.6875 C-6.83266357 56.78668701 -6.66532715 55.88587402 -6.49291992 54.95776367 C-3.68414548 39.21711871 -1.89279899 23.23286494 -1.2902832 7.25317383 C-1.09262637 2.18525275 -1.09262637 2.18525275 0 0 Z " fill="#ffffff" transform="translate(437,71)"/>
<path d="M0 0 C3.9702985 1.32343283 5.19709978 2.60685349 7.375 6.125 C13.73666647 25.20999942 3.61520686 51.07579408 -2.625 69.125 C-5.28414379 77.10243137 -3.38289931 86.40184188 -2.25 94.5625 C-0.81627907 105.39921797 0.35176171 116.24255983 1.375 127.125 C0.385 127.62 0.385 127.62 -0.625 128.125 C-6.76106541 122.63483621 -7.80789871 117.26465193 -8.6953125 109.3203125 C-8.78126678 108.5963327 -8.86722107 107.87235291 -8.95578003 107.12643433 C-9.22646547 104.83494045 -9.48836676 102.54254322 -9.75 100.25 C-9.93301224 98.68743178 -10.11660022 97.12493088 -10.30078125 95.5625 C-10.74884934 91.75074619 -11.18904738 87.93815767 -11.625 84.125 C-14.1 85.115 -14.1 85.115 -16.625 86.125 C-17.02017276 82.17327243 -16.59726911 79.8056297 -14.6315918 76.44873047 C-12.3316598 71.99938475 -12.11404517 68.38353474 -12.26953125 63.4453125 C-12.28157845 62.22785843 -12.28157845 62.22785843 -12.29386902 60.98580933 C-12.32261094 58.40651184 -12.37860518 55.82876887 -12.4375 53.25 C-12.49478375 49.87770263 -12.54072232 46.50534083 -12.58203125 43.1328125 C-12.59330551 42.30369858 -12.60457977 41.47458466 -12.61619568 40.62034607 C-12.91346728 9.82582181 -12.91346728 9.82582181 -8.40625 3.3828125 C-5.68652548 0.70648784 -3.77649266 0.13022388 0 0 Z M-1.625 7.125 C-7.39216855 12.89216855 -6.88672258 24.79853522 -6.91796875 32.5859375 C-6.90912315 35.89122974 -6.86359626 39.19513237 -6.8125 42.5 C-6.79740912 44.21873813 -6.78372859 45.93748924 -6.77148438 47.65625 C-6.738866 51.81282851 -6.68733393 55.96876531 -6.625 60.125 C-4.88527016 57.51540524 -4.18582437 56.05217016 -3.40625 53.1328125 C-3.19701904 52.35204346 -2.98778809 51.57127441 -2.7722168 50.7668457 C-2.55863525 49.93628662 -2.34505371 49.10572754 -2.125 48.25 C-1.79399292 46.96452271 -1.79399292 46.96452271 -1.45629883 45.65307617 C3.79577425 26.36296621 3.79577425 26.36296621 1.375 7.125 C0.385 7.125 -0.605 7.125 -1.625 7.125 Z " fill="#ffffff" transform="translate(522.625,59.875)"/>
<path d="M0 0 C0.67836914 -0.0049649 1.35673828 -0.00992981 2.05566406 -0.01504517 C4.29753638 -0.02963937 6.53933801 -0.03646291 8.78125 -0.04199219 C10.33919273 -0.04774432 11.89713544 -0.05350205 13.45507812 -0.05926514 C16.72005544 -0.06976622 19.98500818 -0.07561524 23.25 -0.07910156 C27.43670595 -0.08459539 31.62308817 -0.10864582 35.80969238 -0.13707352 C39.02670245 -0.15567834 42.24363403 -0.16090425 45.46069336 -0.16243744 C47.00449399 -0.16546758 48.54829312 -0.17350831 50.09204102 -0.18662262 C52.24911347 -0.20364453 54.40538796 -0.2018133 56.5625 -0.1953125 C58.40424805 -0.20078094 58.40424805 -0.20078094 60.28320312 -0.20635986 C63.28125 0.16113281 63.28125 0.16113281 65.20117188 1.68341064 C65.55759766 2.17105896 65.91402344 2.65870728 66.28125 3.16113281 C65.95125 3.82113281 65.62125 4.48113281 65.28125 5.16113281 C64.3947728 5.14780914 63.50829559 5.13448547 62.59495544 5.12075806 C54.22377304 5.00032867 45.85288328 4.90908098 37.48103237 4.85025978 C33.17732604 4.81900161 28.87433793 4.77663182 24.57104492 4.70849609 C20.41479033 4.64310344 16.25922468 4.60738531 12.10249519 4.59186935 C10.52004213 4.58081837 8.93762504 4.55923742 7.35546684 4.52675247 C-2.51832998 4.01375379 -2.51832998 4.01375379 -11.18334961 8.01025391 C-15.2321601 12.28212755 -14.87728411 16.99943718 -14.89575195 22.57641602 C-14.90232315 23.43528412 -14.90889435 24.29415222 -14.91566467 25.17904663 C-14.93538685 28.02333666 -14.94705741 30.86757393 -14.95703125 33.71191406 C-14.96110678 34.68357199 -14.9651823 35.65522991 -14.96938133 36.65633202 C-14.99023672 41.79847374 -15.00454117 46.94058881 -15.01391602 52.08276367 C-15.02498382 57.392466 -15.05938961 62.70174964 -15.09908772 68.0113039 C-15.12523637 72.09570595 -15.13360626 76.18000792 -15.13719749 80.26448631 C-15.14206739 82.22169004 -15.15369282 84.17888918 -15.17223549 86.13601112 C-15.1965913 88.87690024 -15.19566855 91.61670174 -15.1887207 94.35766602 C-15.20153076 95.16359695 -15.21434082 95.96952789 -15.22753906 96.79988098 C-15.17923865 102.03608019 -14.19433859 105.01453336 -10.71875 109.16113281 C-7.04652227 111.60928463 -5.24432659 111.41970108 -0.86401367 111.43579102 C-0.17095627 111.44090195 0.52210114 111.44601288 1.23616028 111.45127869 C3.52862169 111.46518449 5.82078266 111.46421677 8.11328125 111.46191406 C9.7088787 111.4658014 11.30447512 111.47013615 12.90007019 111.47489929 C16.24664664 111.4823643 19.5931176 111.48206891 22.93969727 111.47680664 C27.22029855 111.47102163 31.5004658 111.4879179 35.78099537 111.51115131 C39.07792164 111.52591467 42.37474414 111.52675666 45.67169762 111.52364159 C47.24929347 111.52415382 48.82689527 111.52937325 50.404459 111.53945351 C52.61603201 111.5518469 54.82676955 111.54500892 57.03833008 111.53344727 C58.92338005 111.5343914 58.92338005 111.5343914 60.84651184 111.53535461 C64.6049157 111.12586877 66.98238164 109.94243595 70.28125 108.16113281 C71.27125 108.16113281 72.26125 108.16113281 73.28125 108.16113281 C71.52063687 112.41594786 69.16195135 114.25615836 65.06221008 116.22891235 C61.77476771 117.33091344 59.06537997 117.42912316 55.59838867 117.45166016 C54.62170479 117.46173599 54.62170479 117.46173599 53.62528992 117.47201538 C51.48318749 117.49093632 49.34139944 117.49491671 47.19921875 117.49707031 C45.70095189 117.50350306 44.20268627 117.51023177 42.704422 117.51724243 C39.5665089 117.52920093 36.42870576 117.53292481 33.29077148 117.53173828 C29.2860668 117.53153533 25.28207366 117.55881821 21.27753735 117.5932827 C18.18297643 117.61561297 15.088585 117.61957394 11.9939518 117.61851883 C10.51847193 117.62086632 9.04298678 117.62964152 7.5675869 117.64518356 C-0.41207603 117.72136394 -6.87942839 117.69114889 -13.71875 113.16113281 C-15.55859375 111.34472656 -15.55859375 111.34472656 -16.65625 109.59863281 C-17.03652344 109.01984375 -17.41679688 108.44105469 -17.80859375 107.84472656 C-20.1158553 103.57678781 -19.88030594 99.37904622 -19.89575195 94.66992188 C-19.90232315 93.80290649 -19.90889435 92.93589111 -19.91566467 92.04260254 C-19.93538986 89.17065342 -19.94705885 86.29875658 -19.95703125 83.42675781 C-19.96110678 82.44531548 -19.9651823 81.46387314 -19.96938133 80.45269012 C-19.99023924 75.25752472 -20.0045419 70.06238571 -20.01391602 64.8671875 C-20.02497688 59.5060191 -20.05937399 54.14526615 -20.09908772 48.78424454 C-20.12525574 44.65776812 -20.13360805 40.53139065 -20.13719749 36.40483856 C-20.14206334 34.42892401 -20.15367725 32.45301387 -20.17223549 30.47718048 C-20.19662965 27.70776117 -20.19566135 24.93941614 -20.1887207 22.16992188 C-20.20153076 21.35823547 -20.21434082 20.54654907 -20.22753906 19.71026611 C-20.16999082 13.39039233 -18.47433574 9.16600137 -14.12109375 4.41894531 C-9.22553975 0.63305022 -6.10410187 0.03394505 0 0 Z " fill="#B2D4E6" transform="translate(60.71875,81.8388671875)"/>
<path d="M0 0 C0.99 0.33 1.98 0.66 3 1 C3.95703125 3.75390625 3.95703125 3.75390625 4.8125 7.5625 C5.14619568 9.00152032 5.4809003 10.44030691 5.81640625 11.87890625 C6.09121826 13.08184326 6.09121826 13.08184326 6.37158203 14.30908203 C7.59688239 19.55588102 8.93424009 24.77530602 10.25 30 C10.77644755 32.10406516 11.30252119 34.20822392 11.828125 36.3125 C12.0540332 37.21613281 12.27994141 38.11976563 12.51269531 39.05078125 C12.75391113 40.01564453 12.75391113 40.01564453 13 41 C14.38330678 38.39553228 15.37730456 35.97380783 16.0703125 33.109375 C16.24433594 32.40039062 16.41835937 31.69140625 16.59765625 30.9609375 C16.77167969 30.23132813 16.94570312 29.50171875 17.125 28.75 C17.30675781 28.00492188 17.48851562 27.25984375 17.67578125 26.4921875 C18.12147499 24.6624974 18.56131959 22.83138425 19 21 C20.32 20.67 21.64 20.34 23 20 C23.495 21.134375 23.99 22.26875 24.5 23.4375 C25.82541249 25.8194007 26.430125 26.8085916 29.046875 27.6875 C31.50160806 28.00182131 31.50160806 28.00182131 35 28 C35.5625 29.9375 35.5625 29.9375 36 32 C34.33315985 33.66684015 32.34356931 33.21072764 30.0625 33.25 C29.16660156 33.27578125 28.27070312 33.3015625 27.34765625 33.328125 C26.57292969 33.21984375 25.79820313 33.1115625 25 33 C24.34 32.01 23.68 31.02 23 30 C22.67386719 31.19496094 22.34773438 32.38992187 22.01171875 33.62109375 C19.85477752 41.48117579 17.70668371 49.30731998 15 57 C14.01 57 13.02 57 12 57 C10.23607225 52.96913062 9.19397016 48.9025108 8.2734375 44.6171875 C8.12089508 43.92110382 7.96835266 43.22502014 7.81118774 42.50784302 C7.49150495 41.04425705 7.17394475 39.58020601 6.85839844 38.11572266 C6.37479579 35.8740534 5.88321396 33.63424102 5.390625 31.39453125 C5.08025467 29.96885322 4.77034288 28.54307526 4.4609375 27.1171875 C4.31409515 26.44839569 4.16725281 25.77960388 4.01596069 25.09054565 C3.42338559 22.32336499 3 19.84062287 3 17 C2.34 17 1.68 17 1 17 C0.90912109 18.68029297 0.90912109 18.68029297 0.81640625 20.39453125 C0.73198576 21.86719984 0.64733851 23.33985544 0.5625 24.8125 C0.52318359 25.55048828 0.48386719 26.28847656 0.44335938 27.04882812 C0.25618965 30.23071342 0.01279207 32.96162378 -1 36 C-3.25 35.9375 -3.25 35.9375 -6 35 C-7.60859433 32.78068511 -8.73366268 30.44534103 -10 28 C-10.66 27.67 -11.32 27.34 -12 27 C-12.309375 27.804375 -12.61875 28.60875 -12.9375 29.4375 C-14 32 -14 32 -15 33 C-16.68608966 33.07205511 -18.37500659 33.08386068 -20.0625 33.0625 C-20.98160156 33.05347656 -21.90070312 33.04445312 -22.84765625 33.03515625 C-23.55792969 33.02355469 -24.26820312 33.01195312 -25 33 C-24.67 31.35 -24.34 29.7 -24 28 C-21.36 28 -18.72 28 -16 28 C-15.7525 27.05125 -15.505 26.1025 -15.25 25.125 C-14 22 -14 22 -11.875 20.625 C-11.25625 20.41875 -10.6375 20.2125 -10 20 C-7.525 23.465 -7.525 23.465 -5 27 C-4.88406494 26.21761963 -4.76812988 25.43523926 -4.64868164 24.62915039 C-4.12422227 21.10628266 -3.59344823 17.58439534 -3.0625 14.0625 C-2.88009766 12.83080078 -2.69769531 11.59910156 -2.50976562 10.33007812 C-2.33251953 9.16025391 -2.15527344 7.99042969 -1.97265625 6.78515625 C-1.81031494 5.70113525 -1.64797363 4.61711426 -1.48071289 3.50024414 C-1 1 -1 1 0 0 Z " fill="#AFD2E4" transform="translate(84,112)"/>
<path d="M0 0 C0.66 0 1.32 0 2 0 C2.06963455 9.39708544 2.12287941 18.79408151 2.15543652 28.19136906 C2.17106549 32.55532535 2.19225292 36.91910458 2.22631836 41.28295898 C2.25901093 45.49751453 2.27687383 49.71190019 2.28463173 53.9265728 C2.29015752 55.53127146 2.30094803 57.13596126 2.31719017 58.74058723 C2.33909662 60.9953097 2.3419615 63.24933794 2.34057617 65.50415039 C2.34723801 66.78544327 2.35389984 68.06673615 2.36076355 69.38685608 C1.94423869 73.55846451 0.82595134 76.25661981 -1 80 C-2.98 80 -4.96 80 -7 80 C-5.6875 77.0625 -5.6875 77.0625 -4 74 C-2.515 73.505 -2.515 73.505 -1 73 C-0.67 48.91 -0.34 24.82 0 0 Z " fill="#354B73" transform="translate(136,111)"/>
<path d="M0 0 C5.40711638 2.13769717 8.28666578 4.97330513 11 10 C12.1782378 13.41107116 12.10148453 16.66342312 12.0625 20.25 C12.05347656 21.32765625 12.04445312 22.4053125 12.03515625 23.515625 C12.02355469 24.33546875 12.01195312 25.1553125 12 26 C11.34 26 10.68 26 10 26 C9.67 21.71 9.34 17.42 9 13 C9.01047363 14.77681152 9.02094727 16.55362305 9.03173828 18.38427734 C9.06395739 24.24760197 9.08695542 30.11092353 9.10362434 35.97430992 C9.11407224 39.53012399 9.12824959 43.0858425 9.15087891 46.64160156 C9.17671832 50.727223 9.18646444 54.81274369 9.1953125 58.8984375 C9.20563507 60.17866791 9.21595764 61.45889832 9.22659302 62.77792358 C9.22674408 63.95899689 9.22689514 65.14007019 9.22705078 66.35693359 C9.231492 67.40062103 9.23593323 68.44430847 9.24050903 69.5196228 C9 72 9 72 7 74 C6.99413376 73.24911102 6.98826752 72.49822205 6.98222351 71.72457886 C6.92421492 64.63305419 6.85209181 57.54184436 6.76428509 50.45063591 C6.71964043 46.80532943 6.68037175 43.16013319 6.65356445 39.51464844 C6.62747189 35.99365763 6.58702858 32.47309237 6.53681374 28.95236588 C6.51211642 26.96173999 6.50211553 24.97094925 6.49235535 22.98019409 C6.46266411 21.14897507 6.46266411 21.14897507 6.43237305 19.28076172 C6.42126999 18.21042694 6.41016693 17.14009216 6.39872742 16.037323 C5.93020018 12.4682969 4.86425823 10.06779186 3 7 C2.01 6.34 1.02 5.68 0 5 C-0.1875 2.375 -0.1875 2.375 0 0 Z " fill="#293D68" transform="translate(126,83)"/>
<path d="M0 0 C1.34888059 3.80139075 0.69205814 6.88290506 0.0625 10.8125 C-0.95802778 17.90571491 -1.19720859 24.90041568 -1.1875 32.0625 C-1.18806396 33.03743408 -1.18862793 34.01236816 -1.18920898 35.0168457 C-1.15890603 39.05549779 -1.07947426 42.97795441 -0.4296875 46.96875 C0.07589758 50.5354229 -0.63460922 52.70699871 -2 56 C-2.33 56 -2.66 56 -3 56 C-3.04982309 50.07756749 -3.08591813 44.1552598 -3.10986328 38.23266602 C-3.11985664 36.2222277 -3.13345588 34.21180367 -3.15087891 32.20141602 C-3.3659188 6.73183761 -3.3659188 6.73183761 0 0 Z " fill="#3C4D64" transform="translate(491,70)"/>
<path d="M0 0 C0.99 0.33 1.98 0.66 3 1 C2.67 18.82 2.34 36.64 2 55 C1.67 55 1.34 55 1 55 C0.28566411 36.65714623 -0.16019 18.36023869 0 0 Z " fill="#3E506C" transform="translate(334,165)"/>
<path d="M0 0 C5.40711638 2.13769717 8.28666578 4.97330513 11 10 C12.1782378 13.41107116 12.10148453 16.66342312 12.0625 20.25 C12.05347656 21.32765625 12.04445312 22.4053125 12.03515625 23.515625 C12.02355469 24.33546875 12.01195312 25.1553125 12 26 C11.34 26 10.68 26 10 26 C9.67 20.39 9.34 14.78 9 9 C8.34 9 7.68 9 7 9 C6.67 9.99 6.34 10.98 6 12 C5.38125 11.030625 4.7625 10.06125 4.125 9.0625 C2.34321154 5.97164638 2.34321154 5.97164638 0 5 C0 3.35 0 1.7 0 0 Z " fill="#354972" transform="translate(126,83)"/>
<path d="M0 0 C0.33 0 0.66 0 1 0 C2.02361309 4.21133553 2.11489283 8.16189864 2.09765625 12.48828125 C2.0962413 13.19147995 2.09482635 13.89467865 2.09336853 14.6191864 C2.08780109 16.85033544 2.07525475 19.08138164 2.0625 21.3125 C2.05748079 22.83137875 2.05291862 24.35025909 2.04882812 25.86914062 C2.03784236 29.57946012 2.02060034 33.28972001 2 37 C1.67 37 1.34 37 1 37 C0.67 29.08 0.34 21.16 0 13 C-3.63 14.32 -7.26 15.64 -11 17 C-11.99 16.67 -12.98 16.34 -14 16 C-12.60984189 15.32157861 -11.2125473 14.657771 -9.8125 14 C-9.03519531 13.62875 -8.25789062 13.2575 -7.45703125 12.875 C-5 12 -5 12 0 12 C0 8.04 0 4.08 0 0 Z " fill="#394B6F" transform="translate(244,118)"/>
<path d="M0 0 C3 1 3 1 4.1640625 3.0234375 C5.25371481 6.90341441 5.38234729 10.62562491 5.375 14.625 C5.37483887 15.44661621 5.37467773 16.26823242 5.37451172 17.11474609 C5.20953325 26.26497291 3.61583808 35.23598773 1 44 C0.01 44.495 0.01 44.495 -1 45 C-0.87882812 44.34104736 -0.75765625 43.68209473 -0.6328125 43.00317383 C4.5153607 22.02707764 4.5153607 22.02707764 0 2 C0 1.34 0 0.68 0 0 Z " fill="#3B4C67" transform="translate(499,62)"/>
<path d="M0 0 C-0.99 2.31 -1.98 4.62 -3 7 C-4.98 7 -6.96 7 -9 7 C-6.56143667 1.39130435 -6.56143667 1.39130435 -3.9375 -0.4375 C-2 -1 -2 -1 0 0 Z " fill="#5A7395" transform="translate(138,184)"/>
<path d="M0 0 C3 1 3 1 4.1796875 3.07421875 C5.19410477 6.69230703 5.21756036 10.09228565 5.125 13.8125 C5.11597656 14.50537109 5.10695313 15.19824219 5.09765625 15.91210938 C5.07426157 17.60822395 5.03839641 19.30415871 5 21 C4.67 21 4.34 21 4 21 C3.96261719 20.13117188 3.92523438 19.26234375 3.88671875 18.3671875 C3.41611089 9.73779216 3.41611089 9.73779216 0 2 C0 1.34 0 0.68 0 0 Z " fill="#43566C" transform="translate(499,62)"/>
<path d="M0 0 C4.58826282 1.93726652 6.80528594 3.48864333 9 8 C6 7 6 7 4 5 C3.67 5.66 3.34 6.32 3 7 C2.01 6.34 1.02 5.68 0 5 C-0.1875 2.375 -0.1875 2.375 0 0 Z " fill="#718CA9" transform="translate(126,83)"/>
<path d="M0 0 C0.99 0.33 1.98 0.66 3 1 C2.34 4.3 1.68 7.6 1 11 C0.67 11 0.34 11 0 11 C0 7.37 0 3.74 0 0 Z " fill="#415473" transform="translate(334,165)"/>
<path d="M0 0 C3 1 3 1 4 3 C4.99 3.33 5.98 3.66 7 4 C6.67 4.99 6.34 5.98 6 7 C6 6.34 6 5.68 6 5 C5.34 5 4.68 5 4 5 C3.67 5.99 3.34 6.98 3 8 C2.01 5.36 1.02 2.72 0 0 Z " fill="#4F6689" transform="translate(129,87)"/>
</svg>
