<?xml version="1.0" encoding="UTF-8"?>
<svg version="1.1" xmlns="http://www.w3.org/2000/svg" width="163" height="276">
<path d="M0 0 C0.99168182 -0.00099701 1.98336365 -0.00199402 3.00509644 -0.00302124 C5.08762691 0.00163198 7.17017163 0.02092167 9.25244141 0.05419922 C12.42843663 0.10154385 15.60108312 0.09528408 18.77734375 0.08203125 C20.80991571 0.0931824 22.84247365 0.10740067 24.875 0.125 C25.81683136 0.12317719 26.75866272 0.12135437 27.72903442 0.11947632 C34.6501401 0.2674992 39.17946457 1.53136273 44.16918945 6.6328125 C45.54913415 9.17729879 46.0199938 11.36794508 46.47265625 14.2265625 C46.64345703 15.2784375 46.81425781 16.3303125 46.99023438 17.4140625 C47.15587891 18.5071875 47.32152344 19.6003125 47.4921875 20.7265625 C47.66943359 21.8196875 47.84667969 22.9128125 48.02929688 24.0390625 C48.71156314 28.33813021 49.3046875 32.36459033 49.3046875 36.7265625 C49.9646875 36.7678125 50.6246875 36.8090625 51.3046875 36.8515625 C57.0547526 38.52866482 61.09168387 41.98218924 64.48046875 46.85546875 C66.78217999 51.10288125 67.1118683 55.28340203 67.4296875 60.0390625 C67.51432283 65.90830375 67.51432283 65.90830375 70.3046875 70.7265625 C70.56347656 72.66601562 70.56347656 72.66601562 70.5703125 75.0078125 C70.57417969 76.27044922 70.57417969 76.27044922 70.578125 77.55859375 C70.57039063 78.43902344 70.56265625 79.31945312 70.5546875 80.2265625 C70.56628906 81.54720703 70.56628906 81.54720703 70.578125 82.89453125 C70.57554687 83.73628906 70.57296875 84.57804687 70.5703125 85.4453125 C70.56805664 86.21810547 70.56580078 86.99089844 70.56347656 87.78710938 C70.3046875 89.7265625 70.3046875 89.7265625 68.3046875 91.7265625 C68.00100917 94.08167152 68.00100917 94.08167152 68.04931641 96.84375 C68.04235748 97.91246338 68.03539856 98.98117676 68.02822876 100.08227539 C68.02972427 101.82432251 68.02972427 101.82432251 68.03125 103.6015625 C68.01094543 106.05599401 67.99009437 108.51042106 67.96875 110.96484375 C67.94622447 114.83776605 67.92971188 118.71051149 67.92382812 122.58349609 C67.91425602 126.31901181 67.880401 130.05372756 67.84375 133.7890625 C67.84879547 134.9342334 67.85384094 136.0794043 67.85903931 137.25927734 C67.76540616 144.98198554 66.95841146 152.65311835 61.59463501 158.63305664 C58.87520844 161.13371085 56.37261599 162.69580243 52.9921875 164.2265625 C50.10798145 165.48179757 50.10798145 165.48179757 49.19140625 168.26171875 C47.94381857 173.13665385 47.61215456 177.99603804 47.26953125 183.00585938 C46.66936171 189.7039779 45.0619768 194.30334936 39.84033203 198.89233398 C34.9643183 201.42192183 30.8462078 201.30166301 25.4296875 201.2578125 C24.38699707 201.2616394 23.34430664 201.26546631 22.27001953 201.26940918 C20.07127921 201.27212428 17.87250636 201.26479135 15.67382812 201.24804688 C12.31567103 201.22663254 8.95965335 201.24786329 5.6015625 201.2734375 C3.4609328 201.27079415 1.32030442 201.26566904 -0.8203125 201.2578125 C-1.82046387 201.26590942 -2.82061523 201.27400635 -3.85107422 201.28234863 C-9.63258022 201.20489565 -13.16424048 200.68676253 -17.6953125 196.7265625 C-23.03223906 189.80298209 -22.91401421 183.99753465 -23.31640625 175.453125 C-23.6840455 171.83737405 -24.17792864 169.02627026 -25.6953125 165.7265625 C-27.61523093 164.20748011 -27.61523093 164.20748011 -29.9453125 163.2890625 C-35.52796703 160.48425056 -39.33418195 157.00907632 -41.75161743 151.1791687 C-42.92649692 146.88075033 -42.99059681 142.97742969 -42.98583984 138.54345703 C-42.99255707 137.63859558 -42.99927429 136.73373413 -43.00619507 135.80145264 C-43.0251379 132.82070369 -43.02909729 129.84018033 -43.03125 126.859375 C-43.03768012 124.77961129 -43.04440864 122.69984849 -43.05142212 120.62008667 C-43.06338532 116.26411848 -43.06710388 111.90822955 -43.06591797 107.55224609 C-43.06571475 101.98161206 -43.09302454 96.41148801 -43.12746239 90.84097481 C-43.14974223 86.54631229 -43.15375518 82.25177234 -43.15269852 77.95705795 C-43.15505254 75.90383012 -43.16386479 73.85059882 -43.17936325 71.79742813 C-43.19904645 68.9207449 -43.19317608 66.04515944 -43.18115234 63.16845703 C-43.19239136 62.32767609 -43.20363037 61.48689514 -43.21520996 60.62063599 C-43.1390333 53.41741486 -40.97684919 48.29329128 -36.1953125 42.9140625 C-30.71023787 38.1146222 -30.71023787 38.1146222 -27.5703125 36.9140625 C-24.71539255 35.10594653 -24.56599371 32.93276197 -23.6953125 29.7265625 C-23.48546566 27.46074792 -23.34203295 25.18801463 -23.2578125 22.9140625 C-22.34844223 9.21577064 -22.34844223 9.21577064 -17.90725708 5.04898071 C-11.86878955 0.7968057 -7.30393112 -0.14346041 0 0 Z M-12.6953125 10.7265625 C-14.76947917 13.83781251 -15.02275344 15.0142593 -15.328125 18.61328125 C-15.41191406 19.55107422 -15.49570312 20.48886719 -15.58203125 21.45507812 C-15.66066406 22.43154297 -15.73929688 23.40800781 -15.8203125 24.4140625 C-15.90667969 25.40212891 -15.99304688 26.39019531 -16.08203125 27.40820312 C-16.29410973 29.84710565 -16.49822451 32.28641038 -16.6953125 34.7265625 C-9.42860378 34.90344597 -2.16173281 35.06940661 5.10554314 35.22133827 C8.47985568 35.29222779 11.85399619 35.36690981 15.22802734 35.45019531 C19.10500162 35.54402747 22.98205878 35.62488157 26.859375 35.703125 C28.07398407 35.73532135 29.28859314 35.7675177 30.54000854 35.8006897 C31.66101959 35.82086151 32.78203064 35.84103333 33.93701172 35.86181641 C34.92740448 35.88402252 35.91779724 35.90622864 36.9382019 35.92910767 C39.49446217 35.96627508 39.49446217 35.96627508 41.3046875 33.7265625 C41.02526295 32.05001521 40.67822005 30.38468262 40.3046875 28.7265625 C40.15590974 24.92446419 40.05264744 21.12455929 39.9765625 17.3203125 C39.14761565 12.88641072 37.86842901 11.4245363 34.3046875 8.7265625 C30.06474533 7.52383635 25.7819051 7.54934384 21.40625 7.5234375 C20.65306488 7.51773743 19.89987976 7.51203735 19.12387085 7.50616455 C17.53539418 7.49674983 15.9468983 7.49019466 14.35839844 7.48632812 C11.94431107 7.4766213 9.5310755 7.44556512 7.1171875 7.4140625 C5.56771334 7.40753131 4.01823315 7.40228129 2.46875 7.3984375 C1.75498199 7.3860907 1.04121399 7.3737439 0.30581665 7.36102295 C-4.82819855 7.38354686 -8.24016374 8.34219538 -12.6953125 10.7265625 Z M57.3046875 54.7265625 C57.25839448 66.01812408 57.22283374 77.30966317 57.20106316 88.60130024 C57.19061561 93.84417886 57.17643868 99.08699267 57.15380859 104.32983398 C57.13211486 109.38726122 57.12012619 114.44462601 57.11493301 119.50209618 C57.11123101 121.4338498 57.10400216 123.36559992 57.09322739 125.29732704 C57.07875859 127.99817986 57.07670762 130.69877302 57.07763672 133.3996582 C57.07044617 134.20238663 57.06325562 135.00511505 57.05584717 135.83216858 C57.07017149 139.66762328 57.12510094 141.45718266 59.3046875 144.7265625 C59.35095594 133.28734614 59.38652869 121.84815191 59.40831184 110.40886116 C59.41876479 105.09757312 59.43295147 99.78634894 59.45556641 94.47509766 C59.47724102 89.35283655 59.48924473 84.230637 59.49444199 79.10833359 C59.49814744 77.1506338 59.50538291 75.19293752 59.51614761 73.23526382 C59.53059107 70.50068029 59.53266846 67.7663536 59.53173828 65.03173828 C59.53892883 64.21606384 59.54611938 63.4003894 59.55352783 62.55999756 C59.71411379 58.17521147 59.71411379 58.17521147 57.3046875 54.7265625 Z M-16.6953125 165.7265625 C-17.19203166 186.29681734 -17.19203166 186.29681734 -9.6953125 192.7265625 C-9.3653125 193.0565625 -9.0353125 193.3865625 -8.6953125 193.7265625 C-2.80164179 194.0200017 3.09459604 194.04071544 8.99487305 194.07666016 C10.98425012 194.09318834 12.97356858 194.12043676 14.96264648 194.15869141 C17.83087988 194.21358811 20.69771749 194.23535703 23.56640625 194.25 C24.8932972 194.28400406 24.8932972 194.28400406 26.24699402 194.31869507 C30.52554283 194.30412966 33.43072863 194.09261044 36.86523438 191.39599609 C39.8898198 188.08626661 40.06303066 186.40757648 40.1171875 181.9765625 C40.24785136 176.42645967 40.68327799 171.31924808 41.3046875 165.7265625 C22.1646875 165.7265625 3.0246875 165.7265625 -16.6953125 165.7265625 Z " fill="#264653" transform="translate(76.6953125,39.2734375)"/>
<path d="M0 0 C0.99168182 -0.00099701 1.98336365 -0.00199402 3.00509644 -0.00302124 C5.08762691 0.00163198 7.17017163 0.02092167 9.25244141 0.05419922 C12.42843663 0.10154385 15.60108312 0.09528408 18.77734375 0.08203125 C20.80991571 0.0931824 22.84247365 0.10740067 24.875 0.125 C25.81683136 0.12317719 26.75866272 0.12135437 27.72903442 0.11947632 C34.6501401 0.2674992 39.17946457 1.53136273 44.16918945 6.6328125 C45.54913415 9.17729879 46.0199938 11.36794508 46.47265625 14.2265625 C46.64345703 15.2784375 46.81425781 16.3303125 46.99023438 17.4140625 C47.15587891 18.5071875 47.32152344 19.6003125 47.4921875 20.7265625 C47.66943359 21.8196875 47.84667969 22.9128125 48.02929688 24.0390625 C48.71156314 28.33813021 49.3046875 32.36459033 49.3046875 36.7265625 C49.9646875 36.7678125 50.6246875 36.8090625 51.3046875 36.8515625 C57.0547526 38.52866482 61.09168387 41.98218924 64.48046875 46.85546875 C66.78217999 51.10288125 67.1118683 55.28340203 67.4296875 60.0390625 C67.51432283 65.90830375 67.51432283 65.90830375 70.3046875 70.7265625 C70.56347656 72.66601562 70.56347656 72.66601562 70.5703125 75.0078125 C70.57417969 76.27044922 70.57417969 76.27044922 70.578125 77.55859375 C70.57039063 78.43902344 70.56265625 79.31945312 70.5546875 80.2265625 C70.56628906 81.54720703 70.56628906 81.54720703 70.578125 82.89453125 C70.57554687 83.73628906 70.57296875 84.57804687 70.5703125 85.4453125 C70.56805664 86.21810547 70.56580078 86.99089844 70.56347656 87.78710938 C70.3046875 89.7265625 70.3046875 89.7265625 68.3046875 91.7265625 C68.00100917 94.08167152 68.00100917 94.08167152 68.04931641 96.84375 C68.04235748 97.91246338 68.03539856 98.98117676 68.02822876 100.08227539 C68.02972427 101.82432251 68.02972427 101.82432251 68.03125 103.6015625 C68.01094543 106.05599401 67.99009437 108.51042106 67.96875 110.96484375 C67.94622447 114.83776605 67.92971188 118.71051149 67.92382812 122.58349609 C67.91425602 126.31901181 67.880401 130.05372756 67.84375 133.7890625 C67.84879547 134.9342334 67.85384094 136.0794043 67.85903931 137.25927734 C67.76540616 144.98198554 66.95841146 152.65311835 61.59463501 158.63305664 C58.87520844 161.13371085 56.37261599 162.69580243 52.9921875 164.2265625 C50.10798145 165.48179757 50.10798145 165.48179757 49.19140625 168.26171875 C47.94381857 173.13665385 47.61215456 177.99603804 47.26953125 183.00585938 C46.66936171 189.7039779 45.0619768 194.30334936 39.84033203 198.89233398 C34.9643183 201.42192183 30.8462078 201.30166301 25.4296875 201.2578125 C24.38699707 201.2616394 23.34430664 201.26546631 22.27001953 201.26940918 C20.07127921 201.27212428 17.87250636 201.26479135 15.67382812 201.24804688 C12.31567103 201.22663254 8.95965335 201.24786329 5.6015625 201.2734375 C3.4609328 201.27079415 1.32030442 201.26566904 -0.8203125 201.2578125 C-1.82046387 201.26590942 -2.82061523 201.27400635 -3.85107422 201.28234863 C-9.63258022 201.20489565 -13.16424048 200.68676253 -17.6953125 196.7265625 C-23.03223906 189.80298209 -22.91401421 183.99753465 -23.31640625 175.453125 C-23.6840455 171.83737405 -24.17792864 169.02627026 -25.6953125 165.7265625 C-27.61523093 164.20748011 -27.61523093 164.20748011 -29.9453125 163.2890625 C-35.52796703 160.48425056 -39.33418195 157.00907632 -41.75161743 151.1791687 C-42.92649692 146.88075033 -42.99059681 142.97742969 -42.98583984 138.54345703 C-42.99255707 137.63859558 -42.99927429 136.73373413 -43.00619507 135.80145264 C-43.0251379 132.82070369 -43.02909729 129.84018033 -43.03125 126.859375 C-43.03768012 124.77961129 -43.04440864 122.69984849 -43.05142212 120.62008667 C-43.06338532 116.26411848 -43.06710388 111.90822955 -43.06591797 107.55224609 C-43.06571475 101.98161206 -43.09302454 96.41148801 -43.12746239 90.84097481 C-43.14974223 86.54631229 -43.15375518 82.25177234 -43.15269852 77.95705795 C-43.15505254 75.90383012 -43.16386479 73.85059882 -43.17936325 71.79742813 C-43.19904645 68.9207449 -43.19317608 66.04515944 -43.18115234 63.16845703 C-43.19239136 62.32767609 -43.20363037 61.48689514 -43.21520996 60.62063599 C-43.1390333 53.41741486 -40.97684919 48.29329128 -36.1953125 42.9140625 C-30.71023787 38.1146222 -30.71023787 38.1146222 -27.5703125 36.9140625 C-24.71539255 35.10594653 -24.56599371 32.93276197 -23.6953125 29.7265625 C-23.48546566 27.46074792 -23.34203295 25.18801463 -23.2578125 22.9140625 C-22.34844223 9.21577064 -22.34844223 9.21577064 -17.90725708 5.04898071 C-11.86878955 0.7968057 -7.30393112 -0.14346041 0 0 Z M-12.6953125 10.7265625 C-14.76947917 13.83781251 -15.02275344 15.0142593 -15.328125 18.61328125 C-15.41191406 19.55107422 -15.49570312 20.48886719 -15.58203125 21.45507812 C-15.66066406 22.43154297 -15.73929688 23.40800781 -15.8203125 24.4140625 C-15.90667969 25.40212891 -15.99304688 26.39019531 -16.08203125 27.40820312 C-16.29410973 29.84710565 -16.49822451 32.28641038 -16.6953125 34.7265625 C-9.42860378 34.90344597 -2.16173281 35.06940661 5.10554314 35.22133827 C8.47985568 35.29222779 11.85399619 35.36690981 15.22802734 35.45019531 C19.10500162 35.54402747 22.98205878 35.62488157 26.859375 35.703125 C28.07398407 35.73532135 29.28859314 35.7675177 30.54000854 35.8006897 C31.66101959 35.82086151 32.78203064 35.84103333 33.93701172 35.86181641 C34.92740448 35.88402252 35.91779724 35.90622864 36.9382019 35.92910767 C39.49446217 35.96627508 39.49446217 35.96627508 41.3046875 33.7265625 C41.02526295 32.05001521 40.67822005 30.38468262 40.3046875 28.7265625 C40.15590974 24.92446419 40.05264744 21.12455929 39.9765625 17.3203125 C39.14761565 12.88641072 37.86842901 11.4245363 34.3046875 8.7265625 C30.06474533 7.52383635 25.7819051 7.54934384 21.40625 7.5234375 C20.65306488 7.51773743 19.89987976 7.51203735 19.12387085 7.50616455 C17.53539418 7.49674983 15.9468983 7.49019466 14.35839844 7.48632812 C11.94431107 7.4766213 9.5310755 7.44556512 7.1171875 7.4140625 C5.56771334 7.40753131 4.01823315 7.40228129 2.46875 7.3984375 C1.75498199 7.3860907 1.04121399 7.3737439 0.30581665 7.36102295 C-4.82819855 7.38354686 -8.24016374 8.34219538 -12.6953125 10.7265625 Z M-30.6953125 53.7265625 C-31.96970939 57.54975318 -31.85911906 61.15706052 -31.87231445 65.1418457 C-31.87888565 66.00071381 -31.88545685 66.85958191 -31.89222717 67.74447632 C-31.91194935 70.58876635 -31.92361991 73.43300362 -31.93359375 76.27734375 C-31.93766928 77.24900167 -31.9417448 78.2206596 -31.94594383 79.2217617 C-31.96679922 84.36390343 -31.98110367 89.5060185 -31.99047852 94.64819336 C-32.00154632 99.95789568 -32.03595211 105.26717932 -32.07565022 110.57673359 C-32.10179887 114.66113564 -32.11016876 118.74543761 -32.11375999 122.829916 C-32.11862989 124.78711973 -32.13025532 126.74431887 -32.14879799 128.70144081 C-32.1731538 131.44232993 -32.17223105 134.18213143 -32.1652832 136.9230957 C-32.17809326 137.72902664 -32.19090332 138.53495758 -32.20410156 139.36531067 C-32.14678279 145.57918054 -30.29366007 149.08200423 -25.87983704 153.57432556 C-22.77625681 155.21132241 -20.24245875 155.13031496 -16.74291992 155.16235352 C-15.70552422 155.17746727 -15.70552422 155.17746727 -14.64717102 155.19288635 C-12.36487578 155.22134035 -10.08324274 155.22724179 -7.80078125 155.23046875 C-6.20900707 155.24011313 -4.61723555 155.25020586 -3.02546692 155.26072693 C0.31096558 155.27868287 3.64716518 155.28424868 6.98364258 155.2824707 C11.24775251 155.2821662 15.51035953 155.32308626 19.77411366 155.37478733 C23.06254354 155.40823903 26.35061382 155.41422558 29.6391964 155.41264153 C31.21042744 155.41616954 32.78166898 155.42937154 34.3527317 155.45263863 C44.1618627 155.88305413 44.1618627 155.88305413 52.76049805 151.87084961 C56.86031431 147.56428318 56.46868589 142.75796557 56.49755859 137.12768555 C56.50573608 136.2493103 56.51391357 135.37093506 56.52233887 134.46594238 C56.5471683 131.55672892 56.56370181 128.64756415 56.578125 125.73828125 C56.58611052 124.24769668 56.58611052 124.24769668 56.59425735 122.72699928 C56.6209771 117.46815385 56.64035658 112.20933208 56.65478516 106.95043945 C56.67143863 101.51957925 56.71622582 96.08932519 56.7671566 90.65869427 C56.80081187 86.48164676 56.81236064 82.30474354 56.81801224 78.12757301 C56.82472842 76.12569351 56.83995998 74.12382362 56.86390305 72.12207603 C56.89552321 69.31875528 56.89559625 66.51707532 56.88818359 63.71362305 C56.90458893 62.88899063 56.92099426 62.06435822 56.93789673 61.21473694 C56.89457582 57.20681872 56.56882316 54.5185573 54.08071899 51.28987122 C49.39268333 46.9610721 45.80571797 46.47631153 39.5300293 46.38842773 C38.86915314 46.37689163 38.20827698 46.36535553 37.52737427 46.35346985 C35.35286012 46.31931344 33.17862898 46.30069254 31.00390625 46.28515625 C30.25723001 46.27825335 29.51055378 46.27135044 28.74125099 46.26423836 C24.78981965 46.22846879 20.83852983 46.20489512 16.88696289 46.19116211 C12.8212421 46.17461911 8.75726219 46.11618697 4.69212627 46.04801846 C1.55123505 46.00308972 -1.58924375 45.98965733 -4.7304287 45.98454475 C-6.22832183 45.97668494 -7.72620396 45.95714261 -9.22377968 45.92532158 C-18.10307111 45.74908687 -25.10522884 45.97080445 -30.6953125 53.7265625 Z M57.3046875 54.7265625 C57.25839448 66.01812408 57.22283374 77.30966317 57.20106316 88.60130024 C57.19061561 93.84417886 57.17643868 99.08699267 57.15380859 104.32983398 C57.13211486 109.38726122 57.12012619 114.44462601 57.11493301 119.50209618 C57.11123101 121.4338498 57.10400216 123.36559992 57.09322739 125.29732704 C57.07875859 127.99817986 57.07670762 130.69877302 57.07763672 133.3996582 C57.07044617 134.20238663 57.06325562 135.00511505 57.05584717 135.83216858 C57.07017149 139.66762328 57.12510094 141.45718266 59.3046875 144.7265625 C59.35095594 133.28734614 59.38652869 121.84815191 59.40831184 110.40886116 C59.41876479 105.09757312 59.43295147 99.78634894 59.45556641 94.47509766 C59.47724102 89.35283655 59.48924473 84.230637 59.49444199 79.10833359 C59.49814744 77.1506338 59.50538291 75.19293752 59.51614761 73.23526382 C59.53059107 70.50068029 59.53266846 67.7663536 59.53173828 65.03173828 C59.53892883 64.21606384 59.54611938 63.4003894 59.55352783 62.55999756 C59.71411379 58.17521147 59.71411379 58.17521147 57.3046875 54.7265625 Z M-16.6953125 165.7265625 C-17.19203166 186.29681734 -17.19203166 186.29681734 -9.6953125 192.7265625 C-9.3653125 193.0565625 -9.0353125 193.3865625 -8.6953125 193.7265625 C-2.80164179 194.0200017 3.09459604 194.04071544 8.99487305 194.07666016 C10.98425012 194.09318834 12.97356858 194.12043676 14.96264648 194.15869141 C17.83087988 194.21358811 20.69771749 194.23535703 23.56640625 194.25 C24.8932972 194.28400406 24.8932972 194.28400406 26.24699402 194.31869507 C30.52554283 194.30412966 33.43072863 194.09261044 36.86523438 191.39599609 C39.8898198 188.08626661 40.06303066 186.40757648 40.1171875 181.9765625 C40.24785136 176.42645967 40.68327799 171.31924808 41.3046875 165.7265625 C22.1646875 165.7265625 3.0246875 165.7265625 -16.6953125 165.7265625 Z " fill="#ffffff" transform="translate(76.6953125,39.2734375)"/>
<path d="M0 0 C0.67848495 -0.00978378 1.35696991 -0.01956757 2.05601501 -0.02964783 C4.30148373 -0.05955805 6.54689281 -0.08097991 8.79248047 -0.09985352 C9.9464715 -0.10971126 9.9464715 -0.10971126 11.12377548 -0.11976814 C15.19952302 -0.15234934 19.27524464 -0.17679811 23.35107422 -0.19628906 C26.71311849 -0.21406649 30.07431835 -0.24882912 33.43603516 -0.29882812 C37.50502946 -0.35926749 41.57324409 -0.38979722 45.64266586 -0.39946175 C47.18716381 -0.40798063 48.73164293 -0.42671031 50.27588272 -0.45620537 C58.22544997 -0.59981404 64.91937348 -0.56895829 71.59616089 4.23448181 C76.30662792 9.74211593 76.724427 15.32867128 76.67285156 22.26171875 C76.67810852 23.1406781 76.68336548 24.01963745 76.68878174 24.92523193 C76.70191969 27.81288748 76.69326645 30.69998593 76.68310547 33.58764648 C76.6851278 35.60351161 76.68804057 37.61937602 76.69180298 39.63523865 C76.69621777 43.85243725 76.68982175 48.06944476 76.67578125 52.28662109 C76.65867896 57.68585425 76.66854263 63.08464033 76.68649864 68.48385715 C76.69734987 72.64376685 76.69388416 76.8035709 76.68611526 80.96348381 C76.68411754 82.95415233 76.68655749 84.94483052 76.69355392 86.93548775 C76.7011916 89.7189684 76.68953219 92.50172908 76.67285156 95.28515625 C76.67892426 96.10350449 76.68499695 96.92185272 76.69125366 97.76499939 C76.63718134 102.64727986 75.9668986 105.97312004 73.28466797 110.20874023 C67.64394167 115.60421757 63.34909236 117.44890674 55.60180664 117.49926758 C54.62512276 117.50934341 54.62512276 117.50934341 53.62870789 117.5196228 C51.48660545 117.53854374 49.3448174 117.54252413 47.20263672 117.54467773 C45.70436986 117.55111048 44.20610424 117.55783919 42.70783997 117.56484985 C39.56992686 117.57680835 36.43212372 117.58053223 33.29418945 117.5793457 C29.28948477 117.57914275 25.28549163 117.60642563 21.28095531 117.64089012 C18.1863944 117.66322039 15.09200297 117.66718136 11.99736977 117.66612625 C10.5218899 117.66847374 9.04640475 117.67724894 7.57100487 117.69279099 C-0.40865807 117.76897136 -6.87601042 117.73875631 -13.71533203 113.20874023 C-15.55517578 111.39233398 -15.55517578 111.39233398 -16.65283203 109.64624023 C-17.03310547 109.06745117 -17.41337891 108.48866211 -17.80517578 107.89233398 C-20.11243734 103.62439523 -19.87688797 99.42665364 -19.89233398 94.7175293 C-19.89890518 93.85051392 -19.90547638 92.98349854 -19.9122467 92.09020996 C-19.93197189 89.21826084 -19.94364088 86.346364 -19.95361328 83.47436523 C-19.95768881 82.4929229 -19.96176434 81.51148056 -19.96596336 80.50029755 C-19.98682127 75.30513215 -20.00112393 70.10999314 -20.01049805 64.91479492 C-20.02155891 59.55362652 -20.05595602 54.19287357 -20.09566975 48.83185196 C-20.12183777 44.70537555 -20.13019008 40.57899807 -20.13377953 36.45244598 C-20.13864537 34.47653143 -20.15025928 32.50062129 -20.16881752 30.5247879 C-20.19321168 27.75536859 -20.19224338 24.98702356 -20.18530273 22.2175293 C-20.19811279 21.4058429 -20.21092285 20.59415649 -20.22412109 19.75787354 C-20.16657285 13.43799975 -18.47091777 9.21360879 -14.11767578 4.46655273 C-9.23583618 0.69126345 -6.08680245 0.07872738 0 0 Z M-14.71533203 11.20874023 C-15.98972892 15.03193091 -15.8791386 18.63923825 -15.89233398 22.62402344 C-15.89890518 23.48289154 -15.90547638 24.34175964 -15.9122467 25.22665405 C-15.93196888 28.07094408 -15.94363945 30.91518136 -15.95361328 33.75952148 C-15.95768881 34.73117941 -15.96176434 35.70283733 -15.96596336 36.70393944 C-15.98681875 41.84608116 -16.0011232 46.98819623 -16.01049805 52.13037109 C-16.02156585 57.44007342 -16.05597164 62.74935706 -16.09566975 68.05891132 C-16.1218184 72.14331337 -16.1301883 76.22761534 -16.13377953 80.31209373 C-16.13864942 82.26929746 -16.15027485 84.2264966 -16.16881752 86.18361855 C-16.19317333 88.92450766 -16.19225058 91.66430916 -16.18530273 94.40527344 C-16.19811279 95.21120438 -16.21092285 96.01713531 -16.22412109 96.8474884 C-16.16680233 103.06135827 -14.3136796 106.56418196 -9.89985657 111.0565033 C-6.79627634 112.69350014 -4.26247828 112.61249269 -0.76293945 112.64453125 C0.27445625 112.659645 0.27445625 112.659645 1.33280945 112.67506409 C3.61510469 112.70351809 5.89673773 112.70941953 8.17919922 112.71264648 C9.7709734 112.72229087 11.36274492 112.73238359 12.95451355 112.74290466 C16.29094605 112.76086061 19.62714565 112.76642642 22.96362305 112.76464844 C27.22773298 112.76434394 31.49034 112.80526399 35.75409412 112.85696507 C39.042524 112.89041676 42.33059429 112.89640332 45.61917686 112.89481926 C47.19040791 112.89834728 48.76164945 112.91154927 50.33271217 112.93481636 C60.14184317 113.36523186 60.14184317 113.36523186 68.74047852 109.35302734 C72.84029478 105.04646091 72.44866636 100.2401433 72.47753906 94.60986328 C72.48571655 93.73148804 72.49389404 92.85311279 72.50231934 91.94812012 C72.52714877 89.03890666 72.54368228 86.12974188 72.55810547 83.22045898 C72.56609098 81.72987441 72.56609098 81.72987441 72.57423782 80.20917702 C72.60095757 74.95033159 72.62033705 69.69150981 72.63476562 64.43261719 C72.6514191 59.00175698 72.69620629 53.57150293 72.74713707 48.140872 C72.78079234 43.96382449 72.79234111 39.78692128 72.79799271 35.60975075 C72.80470889 33.60787124 72.81994045 31.60600135 72.84388351 29.60425377 C72.87550368 26.80093302 72.87557671 23.99925306 72.86816406 21.19580078 C72.8845694 20.37116837 72.90097473 19.54653595 72.9178772 18.69691467 C72.87455629 14.68899645 72.54880363 12.00073503 70.06069946 8.77204895 C65.3726638 4.44324984 61.78569844 3.95848926 55.51000977 3.87060547 C54.84913361 3.85906937 54.18825745 3.84753326 53.50735474 3.83564758 C51.33284059 3.80149118 49.15860945 3.78287027 46.98388672 3.76733398 C46.23721048 3.76043108 45.49053425 3.75352818 44.72123146 3.74641609 C40.76980012 3.71064652 36.8185103 3.68707286 32.86694336 3.67333984 C28.80122257 3.65679685 24.73724265 3.59836471 20.67210674 3.53019619 C17.53121551 3.48526745 14.39073672 3.47183507 11.24955177 3.46672249 C9.75165864 3.45886267 8.25377651 3.43932034 6.75620079 3.40749931 C-2.12309064 3.2312646 -9.12524837 3.45298219 -14.71533203 11.20874023 Z M73.28466797 12.20874023 C73.23837494 23.50030182 73.20281421 34.79184091 73.18104362 46.08347797 C73.17059608 51.3263566 73.15641915 56.5691704 73.13378906 61.81201172 C73.11209533 66.86943895 73.10010666 71.92680375 73.09491348 76.98427391 C73.09121148 78.91602753 73.08398263 80.84777765 73.07320786 82.77950478 C73.05873906 85.48035759 73.05668809 88.18095075 73.05761719 90.88183594 C73.05042664 91.68456436 73.04323608 92.48729279 73.03582764 93.31434631 C73.05015196 97.14980101 73.10508141 98.93936039 75.28466797 102.20874023 C75.33093641 90.76952387 75.36650915 79.33032965 75.38829231 67.89103889 C75.39874526 62.57975086 75.41293193 57.26852667 75.43554688 51.95727539 C75.45722149 46.83501429 75.4692252 41.71281473 75.47442245 36.59051132 C75.47812791 34.63281154 75.48536338 32.67511525 75.49612808 30.71744156 C75.51057154 27.98285803 75.51264892 25.24853133 75.51171875 22.51391602 C75.5189093 21.69824158 75.52609985 20.88256714 75.5335083 20.04217529 C75.69409426 15.65738921 75.69409426 15.65738921 73.28466797 12.20874023 Z " fill="#ffffff" transform="translate(60.71533203125,81.791259765625)"/>
<path d="M0 0 C0.99 0.33 1.98 0.66 3 1 C3.95703125 3.75390625 3.95703125 3.75390625 4.8125 7.5625 C5.14619568 9.00152032 5.4809003 10.44030691 5.81640625 11.87890625 C6.09121826 13.08184326 6.09121826 13.08184326 6.37158203 14.30908203 C7.59688239 19.55588102 8.93424009 24.77530602 10.25 30 C10.77644755 32.10406516 11.30252119 34.20822392 11.828125 36.3125 C12.0540332 37.21613281 12.27994141 38.11976563 12.51269531 39.05078125 C12.75391113 40.01564453 12.75391113 40.01564453 13 41 C14.38330678 38.39553228 15.37730456 35.97380783 16.0703125 33.109375 C16.24433594 32.40039062 16.41835937 31.69140625 16.59765625 30.9609375 C16.77167969 30.23132813 16.94570312 29.50171875 17.125 28.75 C17.30675781 28.00492188 17.48851562 27.25984375 17.67578125 26.4921875 C18.12147499 24.6624974 18.56131959 22.83138425 19 21 C20.32 20.67 21.64 20.34 23 20 C23.495 21.134375 23.99 22.26875 24.5 23.4375 C25.82541249 25.8194007 26.430125 26.8085916 29.046875 27.6875 C31.50160806 28.00182131 31.50160806 28.00182131 35 28 C35.5625 29.9375 35.5625 29.9375 36 32 C34.33315985 33.66684015 32.34356931 33.21072764 30.0625 33.25 C29.16660156 33.27578125 28.27070312 33.3015625 27.34765625 33.328125 C26.57292969 33.21984375 25.79820313 33.1115625 25 33 C24.34 32.01 23.68 31.02 23 30 C22.67386719 31.19496094 22.34773438 32.38992187 22.01171875 33.62109375 C19.85477752 41.48117579 17.70668371 49.30731998 15 57 C14.01 57 13.02 57 12 57 C10.23607225 52.96913062 9.19397016 48.9025108 8.2734375 44.6171875 C8.12089508 43.92110382 7.96835266 43.22502014 7.81118774 42.50784302 C7.49150495 41.04425705 7.17394475 39.58020601 6.85839844 38.11572266 C6.37479579 35.8740534 5.88321396 33.63424102 5.390625 31.39453125 C5.08025467 29.96885322 4.77034288 28.54307526 4.4609375 27.1171875 C4.31409515 26.44839569 4.16725281 25.77960388 4.01596069 25.09054565 C3.42338559 22.32336499 3 19.84062287 3 17 C2.34 17 1.68 17 1 17 C0.90912109 18.68029297 0.90912109 18.68029297 0.81640625 20.39453125 C0.73198576 21.86719984 0.64733851 23.33985544 0.5625 24.8125 C0.52318359 25.55048828 0.48386719 26.28847656 0.44335938 27.04882812 C0.25618965 30.23071342 0.01279207 32.96162378 -1 36 C-3.25 35.9375 -3.25 35.9375 -6 35 C-7.60859433 32.78068511 -8.73366268 30.44534103 -10 28 C-10.66 27.67 -11.32 27.34 -12 27 C-12.309375 27.804375 -12.61875 28.60875 -12.9375 29.4375 C-14 32 -14 32 -15 33 C-16.68608966 33.07205511 -18.37500659 33.08386068 -20.0625 33.0625 C-20.98160156 33.05347656 -21.90070312 33.04445312 -22.84765625 33.03515625 C-23.55792969 33.02355469 -24.26820312 33.01195312 -25 33 C-24.67 31.35 -24.34 29.7 -24 28 C-21.36 28 -18.72 28 -16 28 C-15.7525 27.05125 -15.505 26.1025 -15.25 25.125 C-14 22 -14 22 -11.875 20.625 C-11.25625 20.41875 -10.6375 20.2125 -10 20 C-7.525 23.465 -7.525 23.465 -5 27 C-4.88406494 26.21761963 -4.76812988 25.43523926 -4.64868164 24.62915039 C-4.12422227 21.10628266 -3.59344823 17.58439534 -3.0625 14.0625 C-2.88009766 12.83080078 -2.69769531 11.59910156 -2.50976562 10.33007812 C-2.33251953 9.16025391 -2.15527344 7.99042969 -1.97265625 6.78515625 C-1.81031494 5.70113525 -1.64797363 4.61711426 -1.48071289 3.50024414 C-1 1 -1 1 0 0 Z " fill="#ffffff" transform="translate(84,112)"/>
<path d="M0 0 C0.99 0 1.98 0 3 0 C4.64773901 3.29547803 4.12895725 6.95907164 4.11352539 10.58056641 C4.11367142 11.46843338 4.11381744 12.35630035 4.1139679 13.27107239 C4.11326955 16.21459369 4.10548081 19.15805221 4.09765625 22.1015625 C4.09579179 24.13894618 4.09436802 26.17633031 4.09336853 28.2137146 C4.08954555 33.58297966 4.07971711 38.95221777 4.06866455 44.32147217 C4.05844574 49.7976444 4.0538699 55.27382098 4.04882812 60.75 C4.03809467 71.50001185 4.02102085 82.25000369 4 93 C2.02 93.495 2.02 93.495 0 94 C0 62.98 0 31.96 0 0 Z M1 1 C0.95370698 12.29156158 0.91814624 23.58310067 0.89637566 34.87473774 C0.88592811 40.11761636 0.87175118 45.36043017 0.84912109 50.60327148 C0.82742736 55.66069872 0.81543869 60.71806351 0.81024551 65.77553368 C0.80654351 67.7072873 0.79931466 69.63903742 0.78853989 71.57076454 C0.77407109 74.27161736 0.77202012 76.97221052 0.77294922 79.6730957 C0.76575867 80.47582413 0.75856812 81.27855255 0.75115967 82.10560608 C0.76548399 85.94106078 0.82041344 87.73062016 3 91 C3.04626844 79.56078364 3.08184119 68.12158941 3.10362434 56.68229866 C3.11407729 51.37101062 3.12826397 46.05978644 3.15087891 40.74853516 C3.17255352 35.62627405 3.18455723 30.5040745 3.18975449 25.38177109 C3.19345994 23.4240713 3.20069541 21.46637502 3.21146011 19.50870132 C3.22590357 16.77411779 3.22798096 14.0397911 3.22705078 11.30517578 C3.23424133 10.48950134 3.24143188 9.6738269 3.24884033 8.83343506 C3.40942629 4.44864897 3.40942629 4.44864897 1 1 Z " fill="#D8DCE3" transform="translate(133,93)"/>
<path d="M0 0 C4.91930016 0.44720911 8.44842353 2.69556931 12 6 C13.4375 8.8125 13.4375 8.8125 14 11 C12.68 11.33 11.36 11.66 10 12 C9.443125 11.21625 8.88625 10.4325 8.3125 9.625 C5.92331435 6.91295142 4.39926587 6.03866457 1 5 C1.33 4.01 1.66 3.02 2 2 C1.34 1.34 0.68 0.68 0 0 Z " fill="#A3B5C8" transform="translate(122,82)"/>
<path d="M0 0 C0.66 0.33 1.32 0.66 2 1 C1.01 1.33 0.02 1.66 -1 2 C-1.68486725 3.32407669 -2.34870203 4.65909241 -3 6 C-5 8.25 -5 8.25 -7 10 C-7.66 10 -8.32 10 -9 10 C-9.66 11.98 -10.32 13.96 -11 16 C-12 13 -12 13 -10.99609375 10.87890625 C-7.77345067 6.08936403 -5.085771 2.78506507 0 0 Z " fill="#A2ADC0" transform="translate(47,77)"/>
<path d="M0 0 C0.33 0.66 0.66 1.32 1 2 C1.99 1.67 2.98 1.34 4 1 C3.67 2.65 3.34 4.3 3 6 C1.02 6 -0.96 6 -3 6 C-2.01 4.02 -1.02 2.04 0 0 Z " fill="#99ADC2" transform="translate(132,185)"/>
<path d="M0 0 C0.66 0.33 1.32 0.66 2 1 C0.38405168 3.04119788 -1.2856382 5.04072937 -3 7 C-3.66 7 -4.32 7 -5 7 C-5 6.01 -5 5.02 -5 4 C-2.5 1.8125 -2.5 1.8125 0 0 Z " fill="#7D8AA5" transform="translate(62,42)"/>
</svg>
